<?xml version="1.0" encoding="utf-8"?>
<!-- Generator: Adobe Illustrator 22.0.0, SVG Export Plug-In . SVG Version: 6.00 Build 0)  -->
<svg version="1.1" id="Layer_1" xmlns="http://www.w3.org/2000/svg" xmlns:xlink="http://www.w3.org/1999/xlink" x="0px" y="0px"
	 viewBox="0 0 300 300" style="enable-background:new 0 0 300 300;" xml:space="preserve">
<style type="text/css">
	.st0{fill:#A4F4F0;}
	.st1{fill:#FFC0B6;}
	.st2{fill:#6D4332;}
	.st3{fill:#1C88B7;}
	.st4{fill:#F9ADA7;}
	.st5{fill:#F44747;}
	.st6{fill:#272525;}
	.st7{fill:#513882;}
	.st8{fill:#FFCE31;}
	.st9{fill:none;}
	.st10{fill:#E5E5E5;}
	.st11{fill:#AA705E;}
	.st12{fill:#FF7C33;}
	.st13{fill:#C65828;}
	.st14{fill:#2C3C4C;}
	.st15{fill:#666666;}
	.st16{fill:#D85C25;}
	.st17{fill:#BBFFE8;}
	.st18{fill:#5B5B5B;}
	.st19{fill:#9FDDC6;}
	.st20{fill:#FFFFFF;}
	.st21{font-family:'MyriadPro-Regular';}
	.st22{font-size:35.9037px;}
	.st23{fill:none;stroke:#FFFFFF;stroke-width:1.9191;stroke-miterlimit:10;}
	.st24{fill:none;stroke:#FFFFFF;stroke-width:2.5587;stroke-miterlimit:10;}
	.st25{fill:none;stroke:#FFFFFF;stroke-width:1.2794;stroke-miterlimit:10;}
	.st26{fill:none;stroke:#EDFBFC;stroke-width:2.5587;stroke-miterlimit:10;}
	.st27{fill:none;stroke:#EDFBFC;stroke-width:1.9191;stroke-miterlimit:10;}
	.st28{fill:none;stroke:#FFFFFF;stroke-width:3.8381;stroke-miterlimit:10;}
	.st29{fill:none;stroke:#FFFFFF;stroke-width:0.4798;stroke-miterlimit:10;}
	.st30{fill:none;stroke:#FFFFFF;stroke-width:0.9595;stroke-miterlimit:10;stroke-dasharray:3.1984;}
	.st31{fill:none;stroke:#FFFFFF;stroke-width:0.8015;stroke-miterlimit:10;stroke-dasharray:2.6718;}
	.st32{fill:#009DE1;}
	.st33{opacity:0.6;fill:#40A4FF;}
</style>
<g>
	<g>
		<path class="st0" d="M242.4,30.6c-0.7,0-1.3-0.6-1.3-1.3c0-0.7,0.6-1.3,1.3-1.3c0.7,0,1.3,0.6,1.3,1.3
			C243.6,30.1,243,30.6,242.4,30.6z"/>
		<path class="st0" d="M238.6,36.1h3.9c-0.1-0.3-0.2-0.6-0.2-1c0-1.4,1.1-2.6,2.6-2.6c0.3,0,0.6,0.1,0.8,0.1c0-0.2,0-0.4,0-0.7
			c0-3.4,2.8-6.2,6.2-6.2c3.1,0,5.7,2.3,6.1,5.3c0.2,0,0.4-0.1,0.7-0.1c2.1,0,3.8,1.7,3.8,3.8c0,0.4-0.1,0.8-0.2,1.2h2
			c1.2,0,2.1,0.9,2.1,2.1c0,1.2-0.9,2.1-2.1,2.1h-25.6c-1.2,0-2.1-0.9-2.1-2.1C236.5,37,237.5,36.1,238.6,36.1z"/>
	</g>
	<g>
		<path class="st0" d="M58,170c-0.6,0-1-0.4-1-1c0-0.6,0.4-1,1-1c0.6,0,1,0.4,1,1C59,169.5,58.5,170,58,170z"/>
		<path class="st0" d="M55,174.3h3.1c-0.1-0.2-0.2-0.5-0.2-0.8c0-1.1,0.9-2,2-2c0.2,0,0.4,0,0.7,0.1c0-0.2,0-0.4,0-0.5
			c0-2.7,2.2-4.9,4.9-4.9c2.5,0,4.5,1.8,4.9,4.2c0.2,0,0.3,0,0.5,0c1.7,0,3,1.4,3,3c0,0.3-0.1,0.6-0.1,0.9h1.6
			c0.9,0,1.7,0.8,1.7,1.7s-0.8,1.7-1.7,1.7H55c-0.9,0-1.7-0.7-1.7-1.7S54.1,174.3,55,174.3z"/>
	</g>
	<g>
		<path class="st0" d="M47.4,39.6h-3.7c0.1-0.3,0.2-0.6,0.2-0.9c0-1.3-1.1-2.4-2.4-2.4c-0.3,0-0.5,0.1-0.8,0.1c0-0.2,0-0.4,0-0.6
			c0-3.2-2.6-5.9-5.9-5.9c-3,0-5.4,2.2-5.8,5.1c-0.2,0-0.4-0.1-0.6-0.1c-2,0-3.6,1.6-3.6,3.6c0,0.4,0.1,0.8,0.2,1.1h-3.4
			c-1.1,0-2,0.9-2,2c0,1.1,0.9,2,2,2h25.8c1.1,0,2-0.9,2-2C49.4,40.5,48.5,39.6,47.4,39.6z"/>
	</g>
	<g>
		<path class="st0" d="M177.2,65.4c-0.9,0-1.6-0.7-1.6-1.6c0-0.9,0.7-1.6,1.6-1.6c0.9,0,1.6,0.7,1.6,1.6
			C178.8,64.7,178.1,65.4,177.2,65.4z"/>
		<path class="st0" d="M173.9,71.8h0.7c0-0.1,0-0.1,0-0.2c0-2.1,1.7-3.7,3.7-3.7c0.6,0,1.1,0.1,1.6,0.4c0.2-4,3.5-7.2,7.6-7.2
			c4,0,7.2,3.1,7.6,7c0.7-0.5,1.6-0.8,2.6-0.8c2.3,0,4.2,1.6,4.6,3.8c0.4-0.8,1.2-1.4,2.1-1.4c1.2,0,2.2,1,2.3,2.2h2.7
			c1.4,0,2.6,1.2,2.6,2.6c0,1.4-1.2,2.6-2.6,2.6h-35.5c-1.4,0-2.6-1.2-2.6-2.6C171.3,73,172.5,71.8,173.9,71.8z"/>
		<path class="st0" d="M217.7,71.8h1.8c1.4,0,2.6,1.2,2.6,2.6c0,1.4-1.2,2.6-2.6,2.6h-1.8c-1.4,0-2.6-1.2-2.6-2.6
			C215.1,73,216.3,71.8,217.7,71.8z"/>
	</g>
	<polygon class="st1" points="71,217.5 56.7,215.8 46.3,217.7 36.6,207.8 35.2,209.3 44.2,221.8 55.1,221.8 52.6,240.6 67.4,244.2 
		69.9,227.3 70.8,223 78.6,222.9 83.6,233.9 85.7,234.2 81.1,218.8 	"/>
	<g>
		<g>
			<g>
				<polygon class="st2" points="59.4,208.4 56.5,200.1 58.7,201 57.6,197.4 62.4,200.5 61.6,198.6 71.1,203.4 69.2,209.3 				"/>
				<polygon class="st3" points="64.5,266.6 50.8,258.2 58.3,249.2 56.2,293 59.3,293 67.4,244.2 52.6,240.6 42.1,260.4 64.5,269.6 
									"/>
				<polygon points="59.3,293 59.3,295.6 57.8,295.6 57.8,295 56.9,295.6 50.5,295.6 50.5,295.6 56.2,293 				"/>
				<polygon points="64.5,266.6 67.1,266.6 67.1,268 66.5,268 67.1,268.9 67.1,275.4 67.1,275.4 64.5,269.6 				"/>
				<path class="st1" d="M36.6,207.8c0.7-2.9-1.1-1.1-1.1-1.1s-2.8-1.8-3.3-1.2c-0.7,0.8,3,3.9,3,3.9L36.6,207.8z"/>
				<path class="st1" d="M83.6,233.9c-2.8,1.1-0.3,1.6-0.3,1.6s0.2,3.3,1,3.4c1.1,0.1,1.4-4.7,1.4-4.7L83.6,233.9z"/>
				<path class="st1" d="M60,216.3l5.4,0.6c0,0-0.6,3.7-3.1,3.4C59.3,220,60,216.3,60,216.3z"/>
				<g>
					<g>
						<g>
							<polygon class="st1" points="66.4,215.7 60.2,215 59.9,205.1 69.2,206.1 							"/>
							<path class="st1" d="M59.9,207.4c0,0-1.1-0.6-1.2,0.3C58.6,209,60,210,60,210L59.9,207.4z"/>
							<path class="st1" d="M68.5,208.4c0,0,1.3-0.4,1.2,0.6c-0.1,1.2-1.9,1.9-1.9,1.9L68.5,208.4z"/>
							<g>
								<g>
									<g>
										<path class="st4" d="M64.7,211.4c-0.1-1.1-0.3-2.1-0.5-2.5c-0.1,0.4-0.1,1.4,0,2.5c0,0.3,0.1,0.7,0.1,0.6c0,0,0,0,0,0
											c-0.1,0-0.2,0-0.3,0c-0.2,0-0.3,0-0.5,0c-0.3,0-0.5,0.1-0.6,0.1c0.1,0.1,0.4,0.1,0.6,0.1c0.1,0,0.3,0,0.5,0.1
											c0.1,0,0.2,0,0.3,0c0.2,0,0.3,0,0.5,0C64.8,212.1,64.7,211.7,64.7,211.4z"/>
									</g>
								</g>
							</g>
						</g>
						
							<rect x="60.9" y="214.7" transform="matrix(0.1137 -0.9935 0.9935 0.1137 -158.7813 254.5147)" class="st1" width="4.8" height="3"/>
						<polygon class="st4" points="61.7,216.5 64.8,215.8 64.9,215.5 61.9,215.1 						"/>
					</g>
				</g>
				<polygon class="st5" points="67.4,244.2 52.6,240.6 55.1,221.8 50.6,221.8 50.9,216.8 56.7,215.8 73.1,217.8 72.6,223 70.8,223 
									"/>
			</g>
		</g>
	</g>
	<g>
		<g>
			<g>
				<path class="st1" d="M92.1,64.1c-2.4,1.4-1.4-0.6-1.4-0.6s-2.3-2-2-2.6c0.5-0.9,4.3,1.6,4.3,1.6L92.1,64.1z"/>
				<g>
					<path class="st6" d="M82.7,61c0-4.2-1.8-5.6-5.3-4.4c-2,0.7-2.6,4.1-2,5.7c0.5,1.1,1.2,1.4,0.8,2.8c-0.2,1-1.3,1.3-1.4,2.3
						c-0.2,1.2,0.6,1.8,1.6,2.5c1.5,1,0.3,2.4-1,2.5c1.4,0.5,2.8-0.2,3.4-0.9c0.9-1-0.5-1.8-0.6-2.8c-0.1-1.7,0.6-1.9,1.1-2.8
						c0.7-1.3-1.5-4,1.3-3.9L82.7,61z"/>
				</g>
				<path class="st6" d="M81.1,68.2c0,0-5.2-8,3.3-9.8c6.7-1.4,7.4,7.2,5.6,8.3C87.7,68.1,81.1,68.2,81.1,68.2z"/>
				<path class="st1" d="M88.3,75.6l0-4.2l-3.9-0.2l0.1,4.5C84.4,75.6,86.3,79.1,88.3,75.6z"/>
				<polygon class="st4" points="84.4,74.2 88.3,73.3 88.2,71.4 84.4,71.1 				"/>
				<g>
					<path class="st1" d="M89.8,63.6l-0.1,7.3L86.8,73l-3.3-1.2l-2.8-6.5c0,0,2.7-0.7,4.3-2.7c0,0,0.1,1.4-2.6,2.9
						c0,0,2.5-0.5,3.7-2.9C86.1,62.8,87.2,63.8,89.8,63.6z"/>
					<path class="st1" d="M81.5,66.5c0,0-1.3-0.2-1,1c0.4,1.4,2.2,1.9,2.2,1.9L81.5,66.5z"/>
					<path class="st1" d="M89.4,65.3c0,0,1.2-0.5,1.2,0.6c0,1.5-1.5,2.5-1.5,2.5L89.4,65.3z"/>
					<g>
						<g>
							<g>
								<path class="st4" d="M86.9,68.9c-0.3-0.4-0.6-0.8-0.8-0.9c0,0.2,0.2,0.6,0.5,1l0.1,0.2c0,0,0,0,0,0c0,0,0,0,0,0
									c-0.1,0-0.1,0.1-0.2,0.1c-0.1,0.1-0.2,0.1-0.2,0.2c0.1,0,0.2,0,0.3,0c0.1,0,0.1,0,0.2,0c0.1,0,0.3-0.1,0.4-0.1
									C87.1,69.2,87,69.1,86.9,68.9z"/>
							</g>
						</g>
					</g>
				</g>
				<polygon class="st1" points="78.6,98.2 70.9,88.8 77.4,74.8 95,74.7 98,71.4 92.1,64.1 93,62.4 102.9,72.5 95.7,80.8 93.4,98.1 
					81,98.1 79,81.8 75.4,88.6 80.5,98.6 79.8,99.6 				"/>
				<path class="st7" d="M87.1,105.2L82,151.5h-2.7c0,0-1.8-37.6-1.4-45.7c0.3-5.1,2.9-7.8,2.9-7.8h12.4c0,0,2.7,2.7,2.9,7.8
					c0.4,8.1,9.5,45.7,9.5,45.7h-2.7L87.1,105.2z"/>
				<path class="st1" d="M78.6,98.2c-2.6-0.9-1.2,0.9-1.2,0.9s-1.8,2.4-1.3,3c0.7,0.7,3.8-2.5,3.8-2.5L78.6,98.2z"/>
				<polygon class="st8" points="78.3,83.2 79,81.8 81,98.1 93.4,98.1 95.7,80.8 98.6,77.4 95.7,73.9 95,74.7 77.4,74.8 75.1,79.6 
									"/>
				<path class="st1" d="M89.9,74.7l-7.6,0c0,0,0.9,6.5,4.1,6.5C89.6,81.3,89.9,74.7,89.9,74.7z"/>
			</g>
		</g>
		<g>
			<polygon class="st9" points="83.5,115.5 90.8,115.5 87.1,105.2 			"/>
		</g>
		<path class="st10" d="M79.4,151.5c-1,0-6.4,3.2-6.4,3.2H82v-3.2H79.4z"/>
		<path class="st10" d="M105.8,151.5c1,0,6.4,3.2,6.4,3.2h-9.1v-3.2H105.8z"/>
	</g>
	<g>
		<g>
			<path class="st11" d="M228.7,125.8c0,0,2-4.1-0.8-5.5c-2.8-1.4-8.6,6.1-0.1,6.8L228.7,125.8z"/>
			<path class="st12" d="M227.7,128.1c0,0-1-1.2-0.2-2.1c0.8-0.8,2.5-0.4,2.6,0.3L227.7,128.1z"/>
			<path class="st11" d="M227.8,139.2l11.2-6.1c-0.3-6.5-6.9-8.8-10.4-6.4C224.2,129.8,225.3,133.5,227.8,139.2z"/>
			<polygon class="st13" points="230,148.1 233.8,154.5 244.2,165.2 244.5,164 236.4,152.7 232.6,142.5 			"/>
			<polygon class="st14" points="247.3,177.3 251.6,202.1 254.7,202.1 253.3,178.1 			"/>
			<path class="st1" d="M227.8,139.1l4.6,2.7l2.6-2.1l1.3,0l0.1-1.5l2.8-5.2l-5.3-1.4l-1.6,2.3l-0.7-0.2c0,0,0-1.9-0.8-1.8
				c-0.9,0.1-0.9,1.2-0.5,2.2l-1.4,1.4L227.8,139.1z"/>
			
				<rect x="224.9" y="140.7" transform="matrix(0.5086 -0.861 0.861 0.5086 -10.5647 266.1779)" class="st1" width="6" height="3.4"/>
			<polygon class="st4" points="227.3,140 230.6,141.1 230.7,140.9 227.8,139.2 			"/>
			<polygon class="st12" points="224.9,141.2 219.4,165.6 230.6,164.7 231.8,152.3 229.1,154.5 244.1,166.1 244.5,164 235,153.1 
				232.6,142.5 			"/>
			<path class="st14" d="M219.4,165.6c0,0-2.6,11.1,6.7,11.2l20.6-0.2l13.1,25.9l2.9-1.2l-11.6-31.5l-20.5-5.1"/>
			<polygon class="st14" points="251.6,206.7 260.9,206.7 254.7,202.1 251.6,202.1 			"/>
			<polygon class="st14" points="261.6,206.7 270.2,203.1 262.7,201.2 259.8,202.5 			"/>
			<g>
				<polygon class="st15" points="236.7,166.8 237.8,164.7 254.2,168.2 253.7,170.5 				"/>
				<polygon class="st15" points="253.7,170.5 264,157.4 261.5,156.9 252.7,167.9 				"/>
			</g>
			<path class="st1" d="M244.1,166.1l0.4-2c0,0,3.8,0.8,4.6,3.1L244.1,166.1z"/>
		</g>
		<g>
			<g>
				<g>
					<path class="st16" d="M228.4,151.5c1.3,2.2,2.5,4.1,3,4.8c-0.3-0.8-1.3-2.7-2.6-5c-1.3-2.2-2.5-4.1-3-4.8
						C226.2,147.4,227.2,149.3,228.4,151.5z"/>
				</g>
			</g>
		</g>
	</g>
	<g>
		<g>
			<polygon points="221.4,268.7 243,268.7 243,272.8 232.2,277.1 221.4,272.7 			"/>
			<g>
				<path class="st6" d="M226.7,238.7c0,0-1.9-4.8-0.8-6.5c1.7-2.5,9.1-5.4,11.8-3.9c2.3,1.3,0.8,10.1-0.6,10.4
					C235.8,239,226.7,238.7,226.7,238.7z"/>
				<polygon class="st17" points="243.5,244.6 243.5,244.6 248.8,259.6 248.4,261.8 242.7,266.2 242,272.1 222.5,271.7 222.3,266.5 
					222.3,266.5 215.4,262.6 214.8,260.7 220.2,244.8 				"/>
				<path class="st1" d="M234,244.9l-0.1-3.1l-4.4-0.2l0.1,3.4C229.6,245,231.7,249.6,234,244.9z"/>
				<polygon class="st1" points="235.3,245.4 228.3,245.4 226.7,235.2 237.2,235.2 				"/>
				<path class="st1" d="M227.3,237.7c0,0-1.3-0.5-1.3,0.5c0,1.4,1.7,2.3,1.7,2.3L227.3,237.7z"/>
				<path class="st1" d="M236.6,237.8c0,0,1.4-0.6,1.4,0.5c0,1.4-1.9,2.3-1.9,2.3L236.6,237.8z"/>
				<g>
					<g>
						<g>
							<path class="st4" d="M232.6,241.2c-0.3-1.2-0.6-2.2-0.9-2.5c0,0.4,0.1,1.5,0.4,2.7c0.1,0.3,0.2,0.7,0.2,0.6c0,0,0,0-0.1,0
								c-0.1,0-0.2,0-0.3,0c-0.2,0-0.4,0.1-0.5,0.1c-0.3,0.1-0.6,0.1-0.7,0.2c0.2,0,0.4,0.1,0.7,0.1c0.2,0,0.3,0,0.5,0
								c0.1,0,0.2,0,0.3,0c0.2,0,0.4,0,0.6,0C232.8,242,232.7,241.6,232.6,241.2z"/>
						</g>
					</g>
				</g>
			</g>
			<g>
				<path class="st6" d="M229.2,281.6l-1.5-3.2l-2.6,1.2l0.2,8.4C225.4,288,229.2,286.3,229.2,281.6z"/>
				<polygon points="242.9,266.5 252.1,263.7 256.5,266 256,272 229.2,281.6 227.8,278.4 240,271.9 				"/>
				<g>
					<g>
						<g>
							<path class="st18" d="M240.4,271.8c-3.6,1.8-6.7,3.4-7.8,4.2c1.2-0.5,4.4-1.9,8-3.7c3.6-1.8,6.7-3.4,7.8-4.2
								C247.2,268.5,244.1,270,240.4,271.8z"/>
						</g>
					</g>
				</g>
			</g>
			<g>
				<polygon points="222.7,266.7 213.5,263.9 209.1,266.2 209.6,272.1 236.4,281.7 237.8,278.5 225.6,272.1 				"/>
				<g>
					<g>
						<g>
							<path class="st18" d="M227.4,273.6c4.8,2.4,8.8,4.3,10.4,5c-1.5-0.9-5.5-3-10.2-5.4c-4.8-2.4-8.8-4.3-10.4-5
								C218.6,269.1,222.6,271.2,227.4,273.6z"/>
						</g>
					</g>
				</g>
				<path class="st6" d="M236.4,281.7l1.5-3.2l2.6,1.2l-0.2,8.4C240.2,288.1,236.4,286.5,236.4,281.7z"/>
			</g>
			<g>
				<g>
					<g>
						<path class="st19" d="M223.2,253.5c-0.5,1.4-0.8,2.7-0.8,3.2c0.3-0.4,0.8-1.6,1.2-3s0.8-2.7,0.8-3.2
							C224.2,250.9,223.7,252.1,223.2,253.5z"/>
					</g>
				</g>
			</g>
			<g>
				<g>
					<g>
						<path class="st19" d="M240,252.7c0.4,1.4,0.9,2.5,1.2,2.9c0-0.5-0.3-1.7-0.8-3c-0.4-1.4-0.9-2.5-1.2-2.9
							C239.3,250.1,239.5,251.3,240,252.7z"/>
					</g>
				</g>
			</g>
			<g>
				<polygon class="st15" points="242.9,272.1 220.9,272.1 218.6,257 244.5,255.4 				"/>
				<path class="st20" d="M233.4,263.9c0,1-0.8,1.8-1.8,1.8c-1,0-1.8-0.8-1.8-1.8c0-1,0.8-1.8,1.8-1.8
					C232.6,262.1,233.4,262.9,233.4,263.9z"/>
			</g>
		</g>
		<path class="st4" d="M230.1,245.8l2.8,0.7c0.3-0.2,0.5-0.6,0.8-1.1h-3.8C229.9,245.5,230,245.7,230.1,245.8z"/>
	</g>
	<rect x="82.8" y="9.5" class="st9" width="15.8" height="25.5"/>
	<text transform="matrix(1 0 0 1 83.3887 35.0108)" class="st20 st21 st22">?</text>
	<rect x="75.6" y="4.4" class="st23" width="30.2" height="35.3"/>
	<g>
		<path class="st24" d="M266,69.6c3.5,3.5,3.5,9.1,0,12.6c-3.5,3.5-9.1,3.5-12.6,0c-3.5-3.5-3.5-9.1,0-12.6
			C256.8,66.1,262.5,66.1,266,69.6z"/>
		<line class="st25" x1="266" y1="82.2" x2="273" y2="89.3"/>
		<line class="st24" x1="271.3" y1="87.6" x2="280.4" y2="96.7"/>
	</g>
	<g>
		<polyline class="st26" points="118.1,257.3 124.5,263.7 144.4,243.8 		"/>
		<rect x="113.8" y="250.7" class="st27" width="18.9" height="18.9"/>
	</g>
	<g>
		<path class="st23" d="M46.2,142c0,6.5-5.6,16.6-12.6,16.6c-6.9,0-12.6-10.1-12.6-16.6c0-6.5,5.6-11.7,12.6-11.7
			C40.5,130.3,46.2,135.5,46.2,142z"/>
		<polyline class="st25" points="38.4,156.9 38.4,161 28.8,161 28.8,156.9 		"/>
		<polyline class="st25" points="37.7,161 37.7,164 29.5,164 29.5,161 		"/>
		<path class="st25" d="M36.4,163.6c0,1.5-1.2,2.8-2.8,2.8c-1.5,0-2.8-1.2-2.8-2.8"/>
		<line class="st28" x1="33.6" y1="158.5" x2="33.6" y2="151.6"/>
		<polyline class="st25" points="28.6,143.8 33.6,151.6 38.6,143.8 		"/>
		<polyline class="st29" points="28.8,144.1 30.2,143.8 31.4,141.6 33,145.9 34.8,141.6 35.4,144.7 36.3,143.7 38.4,144.2 		"/>
	</g>
	<line class="st30" x1="33.6" y1="200.4" x2="33.6" y2="171"/>
	<polyline class="st30" points="69.6,63.7 57.8,63.7 57.8,22.3 68.9,22.3 	"/>
	<line class="st30" x1="262.7" y1="149.5" x2="262.7" y2="95.4"/>
	<line class="st31" x1="141.2" y1="263.7" x2="201.1" y2="263.7"/>
	<g>
		<path id="XMLID_453_" class="st32" d="M135,145.1c-0.3-0.2-0.7-0.1-0.7,0.3c-0.1,0.2-0.1,0.5,0,0.7c0.4,1.1,0.9,2.1,1.4,3.1
			c0.4,0.9,1.3,0.9,1.9,0.1c0.3-0.4,0.5-0.9,0.8-1.3c0.1-0.1,0.2-0.3,0.4-0.4c0.1,0.1,0.2,0.2,0.2,0.2c0,0.7,0.1,1.5,0.1,2.2
			c-0.8,0.3-5.3,0.8-6.5,0.6c-0.2-2-0.3-3.9-0.5-6c0.4-0.1,0.7-0.3,1.1-0.3c1.2,0,2.3-0.3,3.5-0.5c0.6-0.1,1.2-0.1,1.7,0
			c0.3,0.3,0.2,0.6,0.1,0.8c-0.5,0.9-1.1,1.7-1.7,2.6c-0.5-0.1-0.5-0.5-0.6-0.8C135.8,145.9,135.5,145.4,135,145.1z"/>
		<path id="XMLID_452_" class="st32" d="M137.8,164.3c0.4,0.1,0.8,0,1.1-0.4c0.2-0.3,0.3-0.6,0.5-0.9c0.2-0.4,0.4-0.8,0.7-1.3
			c0.1-0.1,0.1-0.2,0.3-0.5c0.4,1.4,0.3,2.5,0.2,3.7c-0.3,0.1-0.5,0.1-0.7,0.2c-0.9,0-1.8,0-2.7,0.1c-0.8,0-1.7,0.1-2.5,0.1
			c-0.4,0-0.8,0-1.2,0c-0.4-0.7-0.1-1.5-0.2-2.2c-0.1-0.7-0.1-1.5-0.2-2.2c-0.1-0.7-0.3-1.5-0.1-2.3c0.2,0,0.5-0.1,0.7-0.1
			c1.6-0.1,3.1-0.2,4.7-0.4c0.6-0.1,1,0.2,1.4,0.5c-0.5,0.8-0.9,1.7-1.5,2.4c-0.5-0.7-0.7-1.6-1.4-2c-0.4,0-0.5,0.3-0.5,0.6
			c0,0.2,0,0.5,0.1,0.7c0.3,1.1,0.7,2.3,1,3.4C137.3,164,137.4,164.2,137.8,164.3z"/>
		<path id="XMLID_448_" class="st33" d="M179,206.8c-0.4,0.3-0.7,0.3-1.1,0.4c-0.8,0.1-1.7,0.1-2.5,0.2c-4,0.2-8,0.2-12.1,0
			c-1.8-0.1-3.7-0.1-5.6-0.1c-1.5,0-2.9,0.2-4.4,0.3c-0.5,0-0.9,0.1-1.4,0c-0.1-0.4,0.1-0.7,0.3-1c0.6-0.8,1.1-1.5,1.7-2.2
			c0.8-1,1.5-2,2.3-3c0.1-0.1,0.2-0.1,0.3-0.3c0.9,0.4,1.9,0.4,2.9,0.4c2.1,0,4.2,0,6.3,0c2.2-0.1,4.5-0.2,6.7-0.4
			c0.4,0,0.9,0,1.4,0C175.5,203,176.9,205.2,179,206.8z M168.5,204.1c0-0.4-0.2-0.6-0.6-0.6c-0.5,0-0.7,0.3-0.7,0.9
			c0,0.3,0.2,0.5,0.5,0.5C168.2,204.9,168.5,204.7,168.5,204.1z M164.8,205c0.2-0.1,0.4-0.3,0.7-0.5c-0.6-0.6-1.3-0.7-2-0.6
			c-1.8,0.3-3.7,0.4-5.5,0.4c-0.6,0-1.2,0.1-2.1,0.2c0.7,0.6,0.7,0.6,1.2,0.6c2.2,0.1,4.4,0.2,6.6-0.1
			C164,205.2,164.4,205.1,164.8,205z"/>
		<path id="XMLID_447_" class="st33" d="M173.7,198.4c0,0.2,0,0.3,0,0.5c0,0.3-0.2,0.5-0.5,0.6c-0.2,0-0.4,0-0.6,0
			c-2.6,0.2-5.2,0.4-7.8,0.5c-2.1,0.1-4.3,0.1-6.4,0.1c-0.2,0-0.4,0-0.6-0.1c-1-0.2-1.2-0.5-1.2-1.5c0-1.4-0.1-2.8-0.1-4.1
			c0-0.6-0.1-1.2,0.1-1.8c0.3,0,0.6-0.1,0.9-0.1c5.2-0.2,10.3-0.4,15.5-0.4c0.2,0.7,0.3,1.3,0.3,1.9
			C173.4,195.4,173.5,196.9,173.7,198.4z"/>
		<path id="XMLID_442_" class="st32" d="M169.8,183c-0.6-1.1-1.5-1.7-2.8-1.6c-0.1,0-0.2,0-0.2,0c-1-0.1-1.7,0.3-2.5,0.9
			c-0.9,0.8-1,2.1-0.7,3c0.1,0.4,0.4,0.7,0.7,0.9c0.7,0.4,1.5,0.8,2.1,0.7c1.2,0,2.2-0.4,2.9-1C170.2,185.2,170.4,184,169.8,183z
			 M209.7,177.6c0,0.2,0.1,0.4,0.1,0.5c-0.3,2.5-0.6,4.9-1,7.4c0,0.3-0.2,0.6-0.3,0.9c-0.2,0.5-0.6,0.9-1.2,1.1
			c-1.2,0.3-2.4,0.7-3.7,0.8c-4,0.4-8,0.9-12,1.1c-0.6,0-1.3,0-1.9,0.1c-4.6,0.2-9.2,0.5-13.8,0.7c-3.4,0.1-6.8,0.2-10.2,0.3
			c-3,0.1-6,0.2-9,0.3c-2,0.1-4.1,0.1-6.2,0.2c-5.2,0.1-10.5,0.2-15.7,0.3c-1.3,0-2.5,0.2-3.8,0.3c-0.6,0-1.1,0-1.7,0.1
			c-0.7,0-1.5,0.1-2.2,0.1c-1.3,0-2.5,0.1-3.7-0.4c-1.6-0.6-2.8-1.5-3.4-3.2c-0.3-0.9-0.6-1.7-0.8-2.6c-0.5-1.7-0.7-3.5-0.9-5.4
			c0.9-0.1,1.7-0.2,2.5-0.2c5.9,0,11.8,0,17.6,0c3.6,0,7.3-0.1,10.9-0.1c6.1-0.1,12.2-0.2,18.2-0.4c4.4-0.1,8.8-0.3,13.1-0.4
			c4.5-0.1,9.1-0.6,13.6-0.6c2.2,0,4.5-0.2,6.7-0.4c2.3-0.1,4.6-0.2,6.9-0.3C208.5,177.8,209.1,177.7,209.7,177.6z M197,187.1
			c0.1-0.1,0.2-0.4,0.2-0.6c0-0.1-0.2-0.3-0.4-0.4c-0.3-0.1-0.7-0.1-1-0.1c-4.1,0-8.1,0.3-12.1,0.6c-0.1,0-0.2,0.1-0.3,0.1
			c0,0.4,0.2,0.5,0.5,0.6c0.8,0.1,1.6,0.2,2.3,0.3c3.1,0,6.2,0,9.3,0c0.2,0,0.4,0,0.6,0C196.4,187.4,196.7,187.3,197,187.1z
			 M194.9,184.6c0-0.1-0.1-0.2-0.1-0.3c-0.1-0.1-0.3-0.2-0.4-0.2c-0.7-0.1-1.4,0-2.1,0.3c-0.1,0-0.1,0.1-0.2,0.2
			c0.1,0.1,0.3,0.2,0.4,0.3c0.2,0.1,0.5,0.1,0.7,0.1c0.5,0,1-0.1,1.5-0.1C194.8,184.9,194.9,184.7,194.9,184.6z"/>
		<path id="XMLID_393_" d="M217.8,185c0.8,2.3-0.1,5.2-2.2,6.6c-0.7,0.4-1.4,0.7-2.2,0.4c-0.1-0.2,0-0.3,0.1-0.4
			c0.5-0.5,1-0.9,1.5-1.4c1.1-1.1,1.7-2.3,1.8-3.8c0-0.4,0.1-0.8,0.2-1.2c0.1-0.2,0.3-0.3,0.5-0.5
			C217.7,184.8,217.8,184.9,217.8,185z"/>
		<path id="XMLID_392_" d="M214.3,181.8c0.7,1.5,0.9,3,0.5,4.5c-0.2,1-0.6,2-0.9,2.9c-0.4,1.2-1.3,2-2.3,2.7
			c-0.2,0.1-0.5,0.2-0.8,0.3c-0.4,0.1-0.8-0.3-0.6-0.7c0-0.1,0.1-0.3,0.2-0.4c0.2-0.2,0.4-0.5,0.6-0.7c1-0.8,1.5-1.8,2-3
			c0.5-1.4,0.8-2.9,0.9-4.4C214,182.6,213.9,182.2,214.3,181.8z"/>
		<path id="XMLID_390_" d="M203.1,143.5c0,5.2,0,10.3,0,15.5c0,0.3,0,0.6,0,0.9c-0.1,0.5-0.3,0.7-1,0.6c-0.4-0.6-0.4-1.2-0.4-1.8
			c0.1-2.2,0.1-4.4,0.2-6.6c0.1-2.9,0.2-5.8,0.3-8.7c0-0.9,0-1.8,0-2.7c0-0.5-0.1-1,0.3-1.5c0.1,0.3,0.2,0.5,0.3,0.7
			C203.1,141,203.1,142.3,203.1,143.5z"/>
		<path id="XMLID_389_" d="M201.2,145.9c0.1,1.1,0.1,2.1-0.2,3.2c0,0.1-0.2,0.2-0.3,0.4c-0.1-0.2-0.3-0.4-0.3-0.6c0-0.4,0-0.7,0-1.1
			c0.1-0.7,0.1-1.4,0.2-2.1c0-0.3,0-0.7,0.3-0.9C201.2,145.1,201.1,145.6,201.2,145.9z"/>
		<path id="XMLID_387_" d="M194.7,184.9c-0.5,0.1-1,0.1-1.5,0.1c-0.2,0-0.5,0-0.7-0.1c-0.2,0-0.3-0.2-0.4-0.3
			c0.1-0.1,0.1-0.2,0.2-0.2c0.7-0.3,1.4-0.3,2.1-0.3c0.1,0,0.3,0.1,0.4,0.2c0.1,0.1,0.1,0.2,0.1,0.3
			C194.9,184.7,194.8,184.9,194.7,184.9z"/>
		<path id="XMLID_383_" d="M183.6,186.6c4-0.3,8.1-0.6,12.1-0.6c0.3,0,0.7,0,1,0.1c0.2,0,0.4,0.2,0.4,0.4c0,0.2-0.1,0.5-0.2,0.6
			c-0.3,0.2-0.6,0.3-0.9,0.4c-0.2,0.1-0.4,0-0.6,0c-3.1,0-6.2,0-9.3,0c-0.8,0-1.6-0.1-2.3-0.3c-0.3,0-0.5-0.2-0.5-0.6
			C183.4,186.7,183.5,186.6,183.6,186.6z"/>
		<path id="XMLID_376_" d="M167.9,203.5c0.3,0,0.6,0.3,0.6,0.6c0,0.5-0.3,0.8-0.8,0.8c-0.3,0-0.5-0.2-0.5-0.5
			C167.2,203.9,167.5,203.5,167.9,203.5z"/>
		<path id="XMLID_372_" d="M166.8,181.4c0.1,0,0.2,0,0.2,0c1.3-0.1,2.2,0.5,2.8,1.6c0.6,1,0.4,2.2-0.4,3c-0.7,0.7-1.7,1-2.9,1
			c-0.6,0-1.4-0.3-2.1-0.7c-0.3-0.2-0.6-0.5-0.7-0.9c-0.3-0.9-0.2-2.2,0.7-3C165.1,181.7,165.8,181.3,166.8,181.4z M168.3,185
			c0.5-0.4,0.5-0.8,0.2-1.4c-0.5-0.8-0.9-1-1.8-0.7c-0.6,0.2-1.3,0.4-2,0.7c-0.1,1.1,0,1.4,0.8,1.7c0.3,0.1,0.5,0.2,0.8,0.2
			C167.1,185.6,167.8,185.5,168.3,185z"/>
		<path id="XMLID_369_" d="M155.8,204.7c0.8-0.1,1.4-0.2,2.1-0.2c1.8,0,3.7-0.2,5.5-0.4c0.7-0.1,1.4-0.1,2,0.6
			c-0.2,0.2-0.4,0.4-0.7,0.5c-0.4,0.1-0.8,0.2-1.2,0.2c-2.2,0.2-4.4,0.2-6.6,0.1C156.6,205.3,156.6,205.2,155.8,204.7z"/>
		<path id="XMLID_356_" d="M150.2,147.9c-0.7,0-1.5,0-2.2,0c-0.1,0-0.3-0.1-0.4-0.2c1.4-0.4,2.7-0.5,4.1-0.6
			c2.6-0.1,5.3-0.2,7.9-0.3c1,0,2-0.1,3.1-0.2c4.4-0.3,8.8-0.4,13.2-0.9c1.4-0.1,2.8-0.2,4.3-0.3c1.8-0.1,3.7-0.2,5.5-0.3
			c0.5,0,1,0,1.3,0.4c0.1,0.1,0.1,0.4-0.1,0.5c-0.1,0.1-0.2,0.1-0.3,0.1c-0.3,0.1-0.5,0.1-0.8,0.1c-3.3,0.2-6.5,0.3-9.8,0.5
			c-1.4,0.1-2.8,0.2-4.3,0.3c-4,0.2-8,0.4-11.9,0.6c-2.1,0.1-4.3,0.1-6.4,0.1C152.3,147.8,151.2,147.9,150.2,147.9z"/>
		<path id="XMLID_355_" d="M151.5,165c-0.7,0-1.4,0-2.1,0c-0.3,0-0.6,0-0.9-0.3c0.2-0.3,0.6-0.3,1-0.3c4-0.5,7.9-0.6,11.9-0.7
			c4.2-0.1,8.4-0.3,12.5-0.5c3.5-0.1,6.9-0.3,10.4-0.8c0.5-0.1,0.9-0.1,1.4-0.2c0.4,0,0.6,0.2,0.6,0.6c0,0.4-0.1,0.6-0.5,0.7
			c-0.5,0.1-0.9,0.2-1.4,0.2c-2.8,0.3-5.7,0.5-8.5,0.5c-4.3,0.1-8.5,0.3-12.8,0.4c-2.5,0.1-5,0-7.5,0.1
			C154.3,164.8,152.9,165,151.5,165z"/>
		<path id="XMLID_354_" d="M158.9,159.2c-2.3,0-4.6,0.1-6.9,0.2c-1,0-2,0.1-3.1,0.2c-0.3,0-0.5-0.1-0.8-0.1c3.6-0.8,7.2-1,10.8-1.1
			c5.1-0.1,10.2-0.3,15.3-0.4c1.6-0.1,3.2-0.2,4.8-0.3c2.8-0.1,5.5-0.1,8.3-0.1c0.4,0,0.8,0.1,1.1,0.3c0.2,0.1,0.2,0.5,0,0.6
			c-0.2,0.1-0.4,0.2-0.7,0.2c-0.5,0-0.9,0.1-1.4,0.1c-2.8,0-5.5,0-8.3,0.1c-2.5,0.1-5,0.2-7.4,0.3
			C166.8,159.1,162.8,159.1,158.9,159.2z"/>
		<path id="XMLID_353_" d="M167,143.7c-6.4,0.2-12.8,0.5-19.2,0.3c-0.3,0-0.6,0.1-1-0.4c0.4-0.1,0.7-0.2,1-0.2c0.5,0,1.1,0,1.7,0
			c3.9-0.1,7.9-0.1,11.8-0.3c3.5-0.1,6.9-0.4,10.4-0.6c4.4-0.3,8.8-0.5,13.2-0.6c0.7,0,1.3-0.1,2-0.1c0.4,0,0.8,0.1,1.2,0.1
			c0.1,0,0.3,0.3,0.3,0.4s-0.2,0.4-0.3,0.4c-0.3,0.1-0.7,0.1-1,0.2c-1.3,0.1-2.6,0.1-3.9,0.1c-3.9,0-7.7,0.2-11.6,0.4
			C170.1,143.5,168.6,143.6,167,143.7z"/>
		<path id="XMLID_350_" d="M146.2,135.1c0.2,0.2,0.3,0.5,0.2,0.8c-0.1,0.4-0.3,0.8-0.5,1.1c-1.9,2.4-3.6,5.1-5.3,7.7
			c-0.4,0.5-0.5,1-0.4,1.6c0.2,1.4,0.3,2.8,0.4,4.2c0.1,0.8-0.2,1.1-1,1.2c-0.6,0.1-1.3,0.1-1.9,0.1c-1.7,0.1-3.4,0.4-5.1,0.4
			c-1.2,0-1.4-0.2-1.6-1.4c-0.1-0.7-0.1-1.4-0.2-2.1c-0.1-0.9-0.1-1.8-0.2-2.7c0-0.5,0-1,0-1.5c0.1-0.8,0.5-1.2,1.2-1.4
			c0.3-0.1,0.6-0.1,0.9-0.1c1.1-0.1,2.3-0.3,3.4-0.4c1.1-0.1,2.2-0.3,3.4,0.2c0.6-0.8,1-1.6,1.6-2.3c1.1-1.6,2.2-3.1,3.4-4.7
			c0.2-0.2,0.4-0.5,0.7-0.6C145.6,134.8,145.9,134.8,146.2,135.1z M139,149.9c0-0.7-0.1-1.5-0.1-2.2c0-0.1-0.1-0.1-0.2-0.2
			c-0.1,0.1-0.3,0.2-0.4,0.4c-0.3,0.4-0.5,0.9-0.8,1.3c-0.6,0.8-1.4,0.8-1.9-0.1c-0.5-1-0.9-2.1-1.4-3.1c-0.1-0.2-0.1-0.5,0-0.7
			c0.1-0.4,0.4-0.5,0.7-0.3c0.5,0.3,0.8,0.8,1,1.3c0.1,0.3,0.2,0.7,0.6,0.8c0.6-0.9,1.1-1.7,1.7-2.6c0.2-0.2,0.2-0.5-0.1-0.8
			c-0.5-0.1-1.1,0-1.7,0c-1.2,0.1-2.3,0.5-3.5,0.5c-0.3,0-0.7,0.2-1.1,0.3c0.2,2,0.3,4,0.5,5.9C133.7,150.7,138.2,150.2,139,149.9z"
			/>
		<path id="XMLID_342_" d="M144.8,151.9c0.8,1,0.8,1.1,0.2,2c-1,1.6-2,3.1-3,4.7c-0.2,0.3-0.2,0.6-0.2,1c0.1,1.9,0.2,3.9,0.2,5.8
			c0,0.7-0.3,1-1,1.1c-0.7,0.1-1.5,0-2.2,0.1c-1.1,0-2.3,0.1-3.4,0.1c-0.7,0-1.5,0.1-2.2,0c-1,0-1.3-0.3-1.4-1.4
			c-0.1-1.5-0.2-3-0.2-4.5c0-0.7-0.1-1.5-0.1-2.2c0-0.2,0-0.3,0-0.5c0-0.4,0.3-0.7,0.7-0.9c0.3-0.1,0.5-0.1,0.8-0.2
			c1.6-0.1,3.1-0.2,4.7-0.3c0.8,0,1.6-0.1,2.3,0.2c0.5,0.2,0.6,0.1,1-0.4c0.8-1.3,1.6-2.5,2.4-3.8
			C143.8,152.2,143.8,152.2,144.8,151.9z M140.5,164.9c0.1-1.2,0.1-2.3-0.2-3.7c-0.2,0.3-0.2,0.4-0.3,0.5c-0.2,0.4-0.4,0.8-0.7,1.3
			c-0.2,0.3-0.3,0.7-0.5,0.9c-0.2,0.4-0.6,0.4-1.1,0.4c-0.4-0.1-0.5-0.3-0.6-0.7c-0.3-1.1-0.6-2.3-1-3.4c-0.1-0.2-0.1-0.5-0.1-0.7
			c0-0.3,0.1-0.5,0.5-0.6c0.7,0.5,1,1.3,1.4,2c0.6-0.8,1.1-1.6,1.5-2.4c-0.4-0.3-0.8-0.6-1.4-0.5c-1.6,0.2-3.1,0.3-4.7,0.4
			c-0.2,0-0.4,0.1-0.7,0.1c-0.2,0.8,0,1.5,0.1,2.3c0.1,0.7,0.1,1.5,0.2,2.2c0.1,0.7-0.1,1.5,0.2,2.2c0.4,0,0.8,0,1.2,0
			c0.8,0,1.6-0.1,2.5-0.1c0.9,0,1.8,0,2.7-0.1C140,165,140.2,165,140.5,164.9z"/>
		<path id="XMLID_307_" d="M126,154.8c0.5,2.1,0.6,4.3,0.5,6.5c0,0.4-0.1,0.8-0.5,1.1c-0.3-0.5-0.4-1-0.4-1.5c0-1.9-0.1-3.8-0.1-5.7
			c0-0.2,0.1-0.4,0.1-0.7C125.9,154.7,126,154.8,126,154.8z"/>
		<path id="XMLID_300_" d="M129.5,127.7c-1.2,0.2-2.4,0.3-3.6,0.5c-0.8,0.1-1.5,0.3-2.1,0.7c-0.5,0.2-0.9,0.5-1.2,1
			c-0.7,1.1-1.2,2.2-1.3,3.5c-0.1,1-0.2,2-0.2,3c0,3.5-0.1,7-0.4,10.5c-0.2,3.4,0,6.7,0.1,10.1c0.1,2.3,0.3,4.6,0.3,6.9
			c0,4.9,0.3,9.7,0.5,14.5c0,0.2,0.1,0.4,0.1,0.6c0.2,0,0.4,0.1,0.6,0.1c3.2-0.1,6.5-0.2,9.7-0.2c4-0.1,8-0.1,12-0.1
			c2.3,0,4.5,0,6.7-0.1c5.3-0.1,10.7-0.3,16-0.4c3.4-0.1,6.7-0.1,10.1-0.3c3.8-0.2,7.6-0.4,11.3-0.6c5-0.3,9.9-0.5,14.9-0.7
			c0.3,0,0.5-0.1,0.8-0.2c0.1-0.7,0.2-1.3,0.2-1.9c0.1-0.8,0.1-1.6,0.1-2.4c0.2-2.3,0.4-4.6,0.6-7c0.2-3.4,0.4-6.8,0.5-10.2
			c0.1-4.5,0.1-8.9,0-13.4c0-2.6-0.1-5.3-0.1-7.9c0-1.5-0.4-3.1-0.8-4.5c-0.1-0.4-0.3-0.6-0.6-0.8c-0.5-0.3-0.9-0.7-1.3-1.1
			c-0.3-0.3-0.6-0.6-1.1-0.6c-1.1-0.2-2.2-0.4-3.3-0.5c-1.4-0.1-2.8-0.2-4.3-0.2c-1.9-0.1-3.8-0.1-5.7-0.1c-2.1,0-4.2,0.1-6.3,0.1
			c-5.1,0-10.2,0-15.3,0.1c-2,0-4,0.1-6,0.1c-4.5-0.1-9,0.2-13.5,0.4c-3.7,0.2-7.4,0.4-11.1,0.7
			C133.9,127.1,131.7,127.3,129.5,127.7z M118.4,179.3c0.5-0.1,1.1-0.2,1.8-0.3c0-1,0-2-0.1-2.9c-0.2-4.1-0.4-8.3-0.4-12.4
			c0-2.1-0.1-4.2-0.3-6.3c-0.2-2.8-0.3-5.5-0.2-8.3c0.1-2.8,0.2-5.6,0.4-8.4c0.1-1.9,0.2-3.8,0.2-5.7c0.1-1.9,0.5-3.7,1.4-5.3
			c0.7-1.2,1.6-1.9,2.9-2.2c0.3-0.1,0.6-0.1,0.9-0.1c0.9-0.1,1.7-0.2,2.6-0.4c3.3-0.8,6.7-1,10.1-1.3c4.2-0.3,8.3-0.6,12.5-0.8
			c2.1-0.1,4.3-0.3,6.4-0.3c4.3-0.1,8.5-0.2,12.8-0.2c6.9-0.1,13.8,0,20.7-0.2c3.1,0.2,6.2,0.3,9.3,0.5c0.8,0,1.6,0.2,2.4,0.4
			c1,0.2,1.9,0.7,2.5,1.6c0.1,0.2,0.3,0.4,0.5,0.6c0.4,0.5,0.8,1,1,1.6c0.5,1.5,0.8,3,0.9,4.6c0.1,2.2,0.2,4.3,0.2,6.5
			c0.2,6.8,0.2,13.6-0.2,20.5c-0.1,1.9-0.2,3.7-0.3,5.6c-0.2,3.1-0.4,6.3-0.7,9.4c0,0.2,0,0.4,0,0.6c0.7,0.1,1.4,0.1,2,0
			c0.6,0,1.3-0.1,2,0.3c0.1-0.5,0.1-0.7,0.1-1c0.2-3.1,0.4-6.2,0.6-9.3c0.3-4.6,0.3-9.3,0.1-14c-0.1-3.5-0.2-7-0.3-10.5
			c-0.1-2-0.1-4.1-0.2-6.1c-0.2-2.9-0.6-5.8-1.5-8.6c-0.3-1-0.8-2-1.4-2.9c-0.8-1.2-1.9-1.9-3.2-2.3c-1.1-0.3-2.2-0.3-3.3-0.2
			c-1.6,0.1-3.3,0.2-5,0.2c-4.7-0.1-9.4-0.4-14.1-0.6c-3.7-0.1-7.3-0.2-11-0.1c-5.9,0.1-11.7,0.4-17.6,0.5
			c-4.6,0.1-9.2,0.3-13.8,0.6c-2.1,0.2-4.2,0.4-6.2,0.6c-2,0.2-4.1,0.5-6.1,0.8c-1.7,0.3-3.5,0.7-5.2,1c-1.2,0.2-2,0.9-2.6,1.9
			c-0.6,1-1,2-1.2,3.1c-0.2,1-0.3,1.9-0.5,2.9c-0.3,1.6-0.3,3.3-0.3,5c0,1.1,0,2.2,0,3.3c-0.1,2.4-0.1,4.7-0.2,7.1
			c0,0.5,0,1-0.1,1.5c-0.1,2.3-0.2,4.6-0.3,6.9c0,0.4,0,0.7,0,1.1c0.2,2.4,0.1,4.8,0.2,7.2c0,1,0.1,2,0.1,3.1
			c0.1,2.1,0.4,4.1,0.6,6.1c0.2,1.5,0.3,3.1,0.5,4.6C118.1,178.7,118,179,118.4,179.3z M118.3,180.2c0.2,1.9,0.4,3.7,0.9,5.4
			c0.2,0.9,0.5,1.7,0.8,2.6c0.6,1.6,1.8,2.6,3.4,3.2c1.2,0.4,2.5,0.4,3.7,0.4c0.7,0,1.5-0.1,2.2-0.1c0.5,0,1.1,0,1.7-0.1
			c1.3-0.1,2.5-0.3,3.8-0.3c5.2-0.1,10.5-0.2,15.7-0.3c2.1,0,4.1-0.1,6.2-0.2c3-0.1,6-0.2,9-0.3c3.4-0.1,6.8-0.2,10.2-0.3
			c4.6-0.2,9.2-0.4,13.8-0.7c0.6,0,1.3,0,1.9-0.1c4-0.2,8-0.7,12-1.1c1.2-0.1,2.5-0.5,3.7-0.8c0.6-0.1,1-0.5,1.2-1.1
			c0.1-0.3,0.2-0.6,0.3-0.9c0.3-2.5,0.7-4.9,1-7.4c0-0.2,0-0.4-0.1-0.5c-0.6,0.1-1.2,0.2-1.8,0.3c-2.3,0.1-4.6,0.2-6.9,0.3
			c-2.2,0.1-4.5,0.3-6.7,0.4c-4.5,0-9.1,0.5-13.6,0.6c-4.4,0.1-8.8,0.3-13.1,0.4c-6.1,0.1-12.2,0.3-18.2,0.4
			c-3.6,0.1-7.3,0.1-10.9,0.1c-5.9,0-11.8,0-17.6,0C120,180,119.2,180.1,118.3,180.2z M212.5,154.6c0.1,3,0,5.9,0,8.9
			c0,0.9-0.1,1.9-0.2,2.8c-0.2,3.6-0.4,7.2-0.7,10.7c-0.1,1.6-0.3,3.1-0.5,4.7c-0.2,1.4-0.4,2.7-0.6,4.1c-0.1,0.6-0.3,1.2-0.6,1.8
			c-0.5,1-1.3,1.7-2.3,2.1c-1.2,0.5-2.4,0.8-3.7,0.9c-2.2,0.1-4.5,0.2-6.7,0.2c-1.1,0-2.3,0.2-3.4,0.2c-0.4,0-0.9,0.1-1.3,0.1
			c-2.8,0.1-5.5,0.2-8.3,0.3c-2.5,0.1-5,0.3-7.6,0.4c-0.2,0-0.3,0.1-0.5,0.1c-0.1,1-0.4,1.9-0.3,2.9c0.1,1.6,0.4,3.3,0.6,4.9
			c0,0.4,0.2,0.7,0.5,1.1c1,1.1,2,2.3,2.9,3.4c0.6,0.7,1.1,1.4,1.5,2.3c0.4,1,0.1,1.7-0.9,2c-0.6,0.2-1.2,0.3-1.8,0.4
			c-5.1,0.6-10.3,0.6-15.5,0.5c-1.4,0-2.8,0-4.3,0c-2.1,0-4.2,0-6.3,0.1c-0.4,0-0.7,0-1.1-0.1c-0.8-0.1-1.1-0.5-1.1-1.3
			c0.1-0.9,0.4-1.8,0.8-2.6c0.5-0.9,1.1-1.6,1.8-2.3c0.7-0.7,1.4-1.5,2-2.4c0.3-0.5,0.5-1,0.5-1.5c0-2.1,0-4.3,0-6.4
			c0-0.1,0-0.1-0.1-0.4c-0.3,0-0.6,0-0.9,0c-3.2,0-6.3,0.1-9.5,0.1c-2,0-4,0.1-6,0.3c-2.6,0.2-5.2,0.2-7.8,0.3
			c-0.7,0-1.5,0.1-2.2,0.2c-1.9,0.2-3.8,0.1-5.6-0.4c-2.1-0.6-3.7-1.9-4.6-4c-0.5-1.1-0.7-2.3-1-3.5c-0.5-2.3-0.8-4.7-1.1-7
			c-0.2-1.8-0.3-3.7-0.6-5.5c-0.5-3.5-0.6-7-0.5-10.5c0-6.8,0-13.7,0-20.5c0-2.4,0.1-4.7,0.3-7.1c0.1-2,0.4-4.1,0.9-6.1
			c0.3-1.2,0.9-2.4,1.6-3.4c0.7-1.1,1.7-1.8,2.9-2.1c1.8-0.4,3.5-0.8,5.3-1.1c1.9-0.2,3.7-0.6,5.6-0.8c2.1-0.2,4.2-0.4,6.2-0.6
			c1.7-0.2,3.5-0.2,5.2-0.4c0.5,0,0.9-0.1,1.4-0.1c3.9-0.1,7.8-0.2,11.7-0.3c4-0.1,8-0.3,12-0.4c5.4-0.1,10.9-0.1,16.3,0.2
			c2.8,0.1,5.5,0.4,8.3,0.6c1.1,0.1,2.2,0.1,3.3,0.1c2.2,0,4.4,0,6.6,0c1.2,0,2.3,0.3,3.4,0.9c0.8,0.5,1.4,1.1,2,1.8
			c0.8,1.1,1.3,2.2,1.7,3.5c1,2.9,1.4,5.9,1.5,9c0.2,2.8,0.2,5.7,0.3,8.5C212.2,147.7,212.4,151.1,212.5,154.6z M177.9,207.2
			c0.3,0,0.7,0,1.1-0.4c-2.1-1.7-3.4-3.8-5-5.7c-0.6,0-1,0-1.4,0c-2.2,0.1-4.5,0.3-6.7,0.4c-2.1,0.1-4.2,0-6.3,0c-1,0-2,0-2.9-0.4
			c-0.2,0.1-0.3,0.2-0.3,0.3c-0.8,1-1.6,2-2.3,3c-0.6,0.7-1.1,1.5-1.7,2.2c-0.2,0.3-0.4,0.6-0.3,1c0.4,0.2,0.9,0.1,1.4,0
			c1.5-0.1,2.9-0.3,4.4-0.3c1.9,0,3.7,0,5.6,0.1c4,0.2,8,0.2,12.1,0C176.3,207.3,177.1,207.3,177.9,207.2z M173.8,198.8
			c0-0.2,0-0.3,0-0.5c-0.2-1.5-0.3-3-0.3-4.5c0-0.6-0.1-1.2-0.3-1.9c-5.2,0-10.4,0.2-15.5,0.4c-0.3,0-0.6,0.1-0.9,0.1
			c-0.1,0.6-0.1,1.2-0.1,1.8c0,1.4,0.1,2.8,0.1,4.1c0,1,0.2,1.3,1.2,1.5c0.2,0,0.4,0.1,0.6,0.1c2.1,0,4.3,0,6.4-0.1
			c2.6-0.1,5.2-0.4,7.8-0.5c0.2,0,0.4,0,0.6,0C173.6,199.4,173.8,199.2,173.8,198.8z"/>
		<path id="XMLID_295_" d="M123.5,152.7c0.3,2.9,0.6,5.7,0.9,8.6c0.2,1.8,0.4,3.6,0.6,5.4c0,0.5,0,0.9-0.1,1.4
			c0,0.1-0.3,0.3-0.4,0.3c-0.2,0.1-0.5-0.1-0.5-0.3c-0.1-0.3-0.2-0.5-0.2-0.8c-0.2-2.3-0.4-4.5-0.6-6.8c-0.2-2.3-0.3-4.6-0.4-6.8
			c0-0.4,0-0.7,0.1-1.1c0-0.2,0.2-0.3,0.3-0.5C123.5,152.2,123.5,152.4,123.5,152.7z"/>
		<path id="XMLID_293_" d="M114.4,121.9c-0.1,0.1-0.2,0.3-0.3,0.3c-0.5,0.3-0.8,0.7-1.2,1.1c-1.1,1.6-1.9,3.3-2,5.3
			c0,0.4,0,0.9-0.1,1.3c0,0.3-0.1,0.6-0.2,1c-0.2-0.3-0.4-0.4-0.5-0.6c-0.3-0.6-0.4-1.3-0.4-2.1c0-2.4,1-4.3,2.6-6
			c0.3-0.3,0.7-0.5,1.1-0.7C113.8,121.5,114.1,121.5,114.4,121.9z"/>
		<path id="XMLID_289_" d="M116.3,121.5c0.3-0.3,0.7-0.6,1.2-0.7c0.2,0,0.4,0,0.5,0.1c0,0.5-0.3,0.7-0.6,0.9
			c-1.6,1.4-2.7,3.2-3.1,5.3c-0.1,0.8-0.1,1.6-0.2,2.4c0,0.5-0.1,0.9-0.3,1.4c0,0.1-0.2,0.2-0.4,0.2c-0.1,0-0.3-0.1-0.4-0.2
			c-0.1-0.4-0.3-0.7-0.3-1.1C112.7,126.4,113.8,123.7,116.3,121.5z"/>
		<g id="XMLID_288_">
			<g id="XMLID_292_">
				<path id="XMLID_43_" d="M163.2,139.7c-0.2-0.6-0.3-1.2-0.5-1.7c-0.1-0.3-0.1-0.6,0-0.9c0.2-0.6,0.4-1.2,0.4-1.8
					c0.1-1.5,0.1-3-0.1-4.5c-0.1-0.5-0.2-1-0.5-1.4c-0.1-0.2-0.3-0.4-0.5-0.4c-0.7-0.3-1.3-0.3-2,0.2c-0.5,0.3-0.8,0.7-1.1,1.1
					c-0.4,0.7-0.8,1.4-1.1,2.2c-0.5,1.3-0.6,2.6-0.5,4c0.1,0.8,0.3,1.6,0.7,2.3c0.1,0.3,0.3,0.5,0.6,0.7c0.3,0.3,0.8,0.5,1.2,0.5
					c0.5,0,1-0.2,1.4-0.5c0.2-0.1,0.3-0.3,0.6-0.5c0.2,0.5,0.3,0.8,0.4,1.2c0.1,0.2,0.1,0.4,0.2,0.6c0,0.1,0.1,0.2,0.2,0.2
					c0.4,0.1,0.7-0.2,0.7-0.5C163.3,140.1,163.3,139.9,163.2,139.7z M162.5,134.5c0,0.4-0.1,0.9-0.1,1.3c0,0.1-0.1,0.2-0.1,0.3
					c-0.2-0.1-0.2-0.3-0.3-0.4c-0.1-0.3-0.2-0.6-0.5-0.8c-0.1-0.1-0.3-0.2-0.4-0.2c-0.3-0.1-0.5,0.1-0.5,0.4c0,0.2,0,0.4,0.1,0.6
					c0.2,0.7,0.4,1.5,0.7,2.3c-0.2,0.3-0.5,0.7-0.8,0.9c-0.2,0.2-0.5,0.2-0.7,0c-0.1-0.1-0.2-0.3-0.3-0.4c-0.4-0.6-0.5-1.3-0.6-2
					c-0.1-1.5,0-2.9,0.5-4.3c0.2-0.6,0.6-1.2,0.9-1.8c0.2-0.3,0.4-0.6,0.7-0.8c0.4-0.3,0.6-0.2,0.8,0.2c0.2,0.4,0.3,0.8,0.4,1.3
					C162.5,132.3,162.6,133.4,162.5,134.5z"/>
			</g>
			<g id="XMLID_285_">
				<path id="XMLID_39_" d="M173.8,131.4c-0.4-0.1-0.9,0-1.3,0c-0.4,0-0.8,0.1-1.3-0.1c0.1-0.1,0.2-0.2,0.2-0.2
					c0.1-0.1,0.3-0.1,0.4-0.1c0.6-0.1,1.3-0.2,1.9-0.2c0.2,0,0.3,0,0.5,0c0.3,0.1,0.4,0.2,0.4,0.5c0,0.3,0,0.6-0.1,0.9
					c-0.2,0.8-0.4,1.7-0.8,2.5c-0.5,1.2-0.9,2.4-1.3,3.6c0,0.1,0,0.2-0.1,0.4c0.3,0.1,0.5,0,0.8,0c0.7-0.1,1.5-0.2,2.2-0.3
					c0.1,0,0.3,0,0.4,0c0.2,0,0.3,0.2,0.3,0.4c0,0.2-0.1,0.3-0.2,0.3c-0.1,0.1-0.3,0.1-0.4,0.1c-1.2,0.2-2.4,0.3-3.7,0.4
					c-0.1,0-0.1,0-0.2,0c-0.4,0-0.7-0.3-0.6-0.7c0-0.3,0.1-0.5,0.2-0.8c0.3-0.9,0.6-1.7,0.9-2.6c0.4-1.1,0.9-2.1,1.4-3.1
					C173.6,132.1,173.8,131.8,173.8,131.4z"/>
			</g>
			<g id="XMLID_284_">
				<path id="XMLID_34_" d="M165.7,138.5c0.3-0.1,0.3-0.3,0.3-0.5c0.2-0.7,0.4-1.4,0.4-2.2c0.1-1.3,0.1-2.5,0.1-3.8
					c0-0.1,0-0.3,0-0.4c0-0.2,0.1-0.3,0.3-0.3c0.1,0,0.3,0.1,0.3,0.3c0.1,0.4,0.1,0.8,0.1,1.2c0.1,1.3-0.1,2.5-0.2,3.8
					c0,0.5-0.1,1-0.2,1.5c0,0.2-0.1,0.5-0.2,0.7c0,0.1-0.1,0.3-0.2,0.4c-0.3,0.5-0.8,0.6-1.2,0.1c-0.5-0.6-0.9-1.1-1.1-1.9
					c-0.1-0.5-0.3-1.1-0.3-1.6c-0.2-1.3-0.2-2.6-0.2-4c0-0.1,0-0.3,0.1-0.4c0.1-0.3,0.4-0.3,0.6-0.1c0.1,0.2,0.2,0.4,0.2,0.6
					c0,0.6,0.1,1.2,0.1,1.8c0.1,1.1,0.2,2.2,0.4,3.2c0.1,0.4,0.2,0.8,0.4,1.2C165.5,138.3,165.6,138.4,165.7,138.5z"/>
			</g>
			<g id="XMLID_283_">
				<path id="XMLID_30_" d="M168.3,135.9c0-1.6,0.1-2.9,0.2-4.3c0-0.1,0-0.2,0.1-0.3c0.1-0.3,0.5-0.4,0.7-0.1
					c0.1,0.1,0.1,0.2,0.2,0.3c0.1,0.3,0.1,0.5,0.1,0.8c0,0.6,0,1.3,0,1.9c-0.1,1.3-0.1,2.5-0.2,3.8c0,0.3,0,0.6,0,1
					c0,0.1-0.1,0.3-0.1,0.4c-0.1,0.2-0.4,0.2-0.5,0c-0.2-0.2-0.2-0.5-0.2-0.8C168.3,137.6,168.3,136.6,168.3,135.9z"/>
			</g>
			<g id="XMLID_282_">
				<path id="XMLID_13_" d="M168.9,130.5c-0.3,0-0.4-0.2-0.4-0.5c0-0.2,0.2-0.5,0.5-0.4c0.2,0,0.5,0.3,0.4,0.5
					C169.3,130.3,169.1,130.5,168.9,130.5z"/>
			</g>
		</g>
	</g>
</g>
</svg>
