<?xml version="1.0" encoding="utf-8"?>
<!-- Generator: Adobe Illustrator 22.0.0, SVG Export Plug-In . SVG Version: 6.00 Build 0)  -->
<svg version="1.1" id="Layer_1" xmlns="http://www.w3.org/2000/svg" xmlns:xlink="http://www.w3.org/1999/xlink" x="0px" y="0px"
	 viewBox="0 0 300 200.2" style="enable-background:new 0 0 300 200.2;" xml:space="preserve">
<style type="text/css">
	.st0{fill:#FFFFFF;}
</style>
<g>
	<path class="st0" d="M210.9,225.8L192.2,242l19.4,11.5l18.7-29.6c0,0,7.8,2.7,13.5,2.7s10.9-0.3,10.9-0.3s13.1-3.2,18.4-8.7
		c5.4-5.5,10.8-12.8,13.2-19.1c2.3-6.3,3.3-17.5,3.3-17.5v-10.9c0,0,1-10.9-7.1-19.9c-8.1-9-22.3-8.3-22.3-8.3l-4,0l1-5.9
		c0,0,0.8-17.3-2.3-25.1l-8.4-17.5c0,0-7.5-11.5-21.4-21.4c-13.9-9.9-50.3-24.1-63.5-27.7c-13.2-3.6-32.3-25.3-32.3-25.3
		c-1.8,7.1,1,19.1,1,19.1s-9.2-6.7-15.3-10.6C109,23.9,101,10.7,101,10.7s-2.6-10-3-5.2s-0.5,9.2,0,14.5c0.5,5.3,3.6,11,3.6,11
		s-1.1-1.4-11.6-6.2s-21.8-23-21.8-23s-1,2-1.8,4s-2.5,8.8-3.3,12.6S61.9,33,61.9,33s0.3,7.6,0.7,11.4c0.3,3.8,2.6,11.9,3.7,15.4
		c1.1,3.4,6.7,11.9,6.7,11.9L83.7,83c0,0-22.7,10.6-29.9,30.3s-4.2,25-4.2,25s0.1,0.9-1.8,0.7s-10.8,2-10.8,2s-9.3,1.6-16.3,13.8
		c-7,12.2-4.3,29.3-4.3,29.3s2.6,24.9,15.9,33.5s21,7.3,21,7.3h14.2l7.9-1c0,0-3.8-1.4-6.8-2.3c-3.1-0.9-7.2-4.3-9-5.6
		c-1.8-1.3-7.4-7.5-7.4-7.5l-2.9,1.4c0,0-1.8,0.3-4.8-0.8s-9-6.7-9-6.7l-6.3-8.8c0,0-5.2-13-2.7-20.1c2.5-7.1,10-5.5,10-5.5
		s0.4,5.9,0-8.4c-0.4-14.3,5.2-14.7,5.2-14.7l8.2-1.9c0,0,11.5-2.3,16.5-3.4s17.9-2,17.9-2s1.6-1.1,5.9-4.5
		c4.3-3.4,19.2-6.6,19.2-6.6h11c0,0,4,1.1,10.7,2.6c6.7,1.5,19.5,10.7,19.5,10.7l3.9,3.2l6.7-7.5c0,0,8.6-6.2,11.6-7.8
		c3-1.6,12.6-2.7,12.6-2.7s5.1-0.5,13.1,0c8,0.5,20.4,6.9,20.4,6.9l7,6.5l0.3,0.2l22.7,4.4c0,0,12.6,1.1,13,8.3
		c0.5,7.3,0,16.2,0,16.2l3.6-1.8c0,0,3.9-1.4,6.5,0.6c2.6,2,5,3.9,3.8,9.5c-1.2,5.6-9.8,23.9-17.3,30.6s-10.3,9.5-13.9,6.4
		c-2-1.8-1.2-1.1-1.6-1.4c0,0-8.6,8.9-15.8,11.1s-16.2,3.2-16.2,3.2L210.9,225.8z"/>
	<path class="st0" d="M254.1,149.2l-14.6-3.1c0,0-17.7-4.3-27.1-4.6c-9.4-0.3-13.7-0.9-20,0c-6.3,0.9-20,5.7-20,5.7l-5.7,2.3l-2.6,2
		l-24.6-0.6h-8.3c0,0-6.6-4.9-14.7-7.4S91,141,91,141s-18.3,0.7-27.4,3c-9.1,2.3-19.3,4.2-19.3,4.2s-4.1,0.5-3.8,6.5
		c0.3,6,0,13.9,0,13.9s6,2.9,8,15.7c2,12.9,5.7,19.1,5.7,19.1S63,216,71,218c0,0,4.3,3.7,14.6,4c10.3,0.3,12.6,0,20.8-1.1
		c8.3-1.1,17.7-9.4,17.7-9.4s11.7-19.4,13.7-32.8c2-13.4,6.9-13.1,6.9-13.1s2.9-3.7,9.4,0c6.6,3.7,6.9,18.9,6.9,18.9
		s7.1,23.1,14.3,27.7c7.1,4.6,5.4,6.3,19.7,8.9c14.3,2.6,27.4-0.6,27.4-0.6s17.7-6.1,26-27.3c0,0,3.4-23.5,8.3-24.4v-17.4
		L254.1,149.2z M121.6,192.6c-2.3,5.1-5.7,11.5-10.6,14.3c-4.9,2.8-18.5,3.8-18.5,3.8s-9.8,4-23.6-7.4c-13.8-11.5-7.4-37.7-7.4-37.7
		s5.9-8.6,9.8-9.6l12.3-3.2l11.5-1.1l13.8,2.1c0,0,8.7,2.6,11.9,6.6c3.2,4,3.6,12.8,3.6,12.8S123.9,187.5,121.6,192.6z M235.4,192.6
		c-2.3,5.1-5.7,11.5-10.6,14.3c-4.9,2.8-18.5,3.8-18.5,3.8s-9.8,4-23.6-7.4c-13.8-11.5-7.4-37.7-7.4-37.7s5.9-8.6,9.8-9.6l12.3-3.2
		l11.5-1.1l13.8,2.1c0,0,8.7,2.6,11.9,6.6c3.2,4,3.6,12.8,3.6,12.8S237.7,187.5,235.4,192.6z"/>
</g>
</svg>
