<?xml version="1.0" encoding="utf-8"?>
<!-- Generator: Adobe Illustrator 22.0.0, SVG Export Plug-In . SVG Version: 6.00 Build 0)  -->
<svg version="1.1" id="Layer_1" xmlns="http://www.w3.org/2000/svg" xmlns:xlink="http://www.w3.org/1999/xlink" x="0px" y="0px"
	 viewBox="0 0 300 300" style="enable-background:new 0 0 300 300;" xml:space="preserve">
<style type="text/css">
	.st0{fill:#F17187;}
	.st1{fill:#4C768B;}
	.st2{opacity:0.14;}
	.st3{fill:#54707E;}
	.st4{fill:#0C2757;}
	.st5{fill:#636366;}
	.st6{fill:#D0D3D4;}
	.st7{fill:#FFFFFF;}
	.st8{fill:#CCCCCC;}
	.st9{fill:#7EACF1;}
	.st10{fill:#272727;}
	.st11{fill:#3B308A;}
	.st12{fill:#FFBFA4;}
	.st13{fill:#4C4C4C;}
	.st14{fill:#3A4CC5;}
	.st15{fill:#424DC1;}
	.st16{fill:#CE7361;}
	.st17{fill:#EB324C;}
	.st18{fill:#27348C;}
	.st19{fill:#F6D5D5;}
	.st20{opacity:0.22;}
	.st21{fill:#FC3E77;}
</style>
<g>
	<path class="st0" d="M133.9,77.5c0.8-0.6,1.8-0.8,2.8-0.9c4.9-0.7,9.8-1.3,14.8-1.6c7.6-0.5,15.4-0.6,22.4,2.7
		c1.2,0.5,2.5,1.6,2.2,3.1c-0.2,1.2-1.4,1.7-2.5,1.9c-10,2.2-20.3,1.9-30.4,1.5C141.4,84.2,127.8,81.8,133.9,77.5z"/>
</g>
<g>
	<g>
		<polygon class="st1" points="163.3,232.8 128.4,232.4 131.8,205.7 160.5,206 		"/>
	</g>
	<g class="st2">
		<polygon points="130.9,213.1 161.1,211.8 161.9,219.7 		"/>
	</g>
	<g>
		<path class="st3" d="M54,81.5v129.2c0,1.4,1.1,2.5,2.5,2.5h179.2c1.4,0,2.5-1.1,2.5-2.5V81.5c0-1.3-1.1-2.4-2.4-2.4H56.3
			C55,79.1,54,80.1,54,81.5z"/>
	</g>
	<g>
		<path class="st4" d="M54,81.1v115.4h184.1V81.1c0-1.2-1-2.2-2.2-2.2H56.2C54.9,78.9,54,79.9,54,81.1z"/>
	</g>
	<g>
		<rect x="58.8" y="84.3" class="st5" width="174.4" height="106"/>
	</g>
	<g>
		<rect x="118.4" y="229.1" class="st1" width="55.2" height="9.6"/>
	</g>
</g>
<g>
	<g>
		<g>
			<rect x="58.7" y="84.3" class="st6" width="174.4" height="9"/>
		</g>
	</g>
	<g>
		<g>
			<rect x="174.2" y="86.6" class="st7" width="54.8" height="4.4"/>
		</g>
		<g>
			<polygon class="st8" points="224.5,88.3 227.2,88.3 225.9,89.5 			"/>
		</g>
		<g>
			<g>
				<rect x="222.4" y="86.9" class="st8" width="0.3" height="3.7"/>
			</g>
		</g>
	</g>
	<g>
		<path class="st9" d="M69.3,88.9c0,1.6-1.3,2.9-2.9,2.9c-1.6,0-2.9-1.3-2.9-2.9c0-1.6,1.3-2.9,2.9-2.9C68,86,69.3,87.3,69.3,88.9z"
			/>
	</g>
</g>
<g>
	<g>
		<polygon class="st10" points="56.8,228.2 58.8,230 57.1,236.7 54.9,236.7 53.7,231.8 55.3,227.9 		"/>
	</g>
	<g>
		<polygon class="st11" points="31.8,167.5 46.4,170.3 38,199.7 55.7,228.2 53.7,231.8 28.3,204.7 26,198 27.6,170.9 		"/>
	</g>
</g>
<g>
	<g>
		<polygon class="st11" points="57.4,167.5 53.6,194.7 48.8,235.8 43.9,235.4 41.5,193.9 43,167.7 		"/>
	</g>
</g>
<g>
	<path class="st9" d="M21.8,175c-0.3,1.2-0.6,2.4-1,3.6c-0.1,0.3-0.2,0.5,0,0.8c0.1,0.2,0.3,0.3,0.5,0.5c2.4,1.4,5.4,1.8,8.1,0.9
		c1.3-0.4,2.5-1.2,3.8-1.5c2.2-0.6,4.6-0.3,6.8-0.2c2.2,0.1,4.2-0.4,6.4-0.6c5.3-0.4,6.7-0.7,11.8,0.9c0-9.5,2-16.9,0.5-25.8
		c-1.4-8.9-2.9-17.7-4.3-26.6c-0.2-1.5-0.5-3-1.1-4.3c-2.8-5.9-9.4-7.1-15.2-5.4c-3,0.9-5.3,4.2-6.8,6.8c-1.9,3.3-2.9,7.1-3.6,10.8
		c-2.3,11.6-2.4,23.6-4.7,35.2C22.6,171.6,22.2,173.3,21.8,175z"/>
</g>
<g>
	<g>
		<g>
			<g>
				<g>
					<path class="st12" d="M41.6,118.4c0.1,0.1,0.1,0.2,0.2,0.3c0.4,0.4,0.9,0.7,1.5,0.8c0.7,0.2,1.5,0.1,2.3,0c1-0.1,1-0.7,1.2-1.6
						c0.2-1,0.3-2,0.5-3c1.5-0.1,3.2-0.4,3.8-1.9c0.2-0.5,0.3-1,0.3-1.5c0.2-2.1,0.4-4.2,0.6-6.4c0.1-0.7,0.1-1.5,0-2.2
						c-0.3-1.2-1.4-2-2.4-2.6c-2.6-1.4-5.8-1.6-8.5-0.3c-0.7,0.4-1.4,0.9-1.9,1.6c-0.7,1.1-0.8,2.6-0.8,3.9c0,1.2-0.1,2.5-0.1,3.7
						c0,1.4,0,3.1,1,4c0.5,0.5,1.3,0.6,1.7,1.2c0.6,0.7,0.5,1.7,0.4,2.5C41.5,117.5,41.4,117.9,41.6,118.4z"/>
				</g>
			</g>
			<g>
				<path class="st10" d="M49.7,102.7c0.1,0.1,0.1,0.2,0.1,0.4c0.2,0.7,0,1.4,0.1,2.1c0.3,1.1,1.5,1.8,1.6,2.9
					c0.1,0.9-0.6,1.7-0.7,2.6c-0.1,1,0.4,2,0.3,2.9c-0.1,0.8-0.8,2-1.3,2.6c0.2-0.2,1.6,0,2-0.2c0.6-0.3,0.7-0.5,0.9-1.1
					c0.2-0.6,0.1-1.2,0.4-1.7c0.4-0.7,1.1-1.2,1.3-2c0.4-1-0.1-2.2,0-3.3c0.2-1.7,1.8-3.2,1.3-4.8c-0.2-1-1.1-1.6-1.6-2.5
					c-0.3-0.7-0.4-1.4-0.6-2.2c-0.2-0.7-0.6-1.5-1.3-1.7c-0.4-0.1-0.8-0.1-1.2-0.2c-0.7-0.2-1.2-0.7-1.9-1c-1-0.4-2.7,0.5-3.4,1.2
					c-0.6,0.8-0.4,1.5,0.1,2.3C46.8,100.3,49,101.2,49.7,102.7z"/>
			</g>
		</g>
		<g>
			<path class="st10" d="M36.2,96.8c-0.6,0.4-1.4,0.6-1.9,1.1c-1.1,0.9-1.4,2.4-1.6,3.9c-0.1,1.3-0.8,2.4-0.7,3.7
				c0,0.9,0.3,1.8,1,2.4c0.9,0.7,2.3,0.9,2.6,2c0.4,1.2-0.9,2.5-0.3,3.5c0.4,0.6,1.1,0.7,1.6,1.1c0.6,0.4,0.9,1.2,1.2,1.9
				c0.3,0.7,0.9,1.3,1.6,1.4c0.1-1.1,0.2-2-0.2-3.1c-0.2-0.6-1-1.8-0.3-2.4c0.4-0.5,1.4-0.6,1.5-1.3c0-0.3-0.2-0.6-0.3-0.9
				c-0.6-1.1-0.6-2.4,0-3.5c0.5-1.1,1.5-1.9,2.7-2.4c1.3-0.5,1.2-0.9,1.6-2.1c0.4-1.1,1.1-1.3,2.2-1.7c0.9-0.3,1.3-0.5,1.7-1.4
				c0.3-0.6,0.7-1.3,0.3-2.1c-0.2-0.6-0.7-1-1.2-1.4c-1-0.9-2.1-1.8-3.4-1.8c-0.7,0-1.4,0.3-2.2,0.3c-0.5,0-1-0.1-1.4-0.2
				c-0.8-0.1-1.7,0.1-2.4,0.5c-0.7,0.4-0.7,1-1.2,1.7C36.8,96.4,36.5,96.6,36.2,96.8z"/>
		</g>
		<g>
			<path class="st10" d="M39.4,92.4c0.2-0.8,0.2-1.8-0.6-2.1c-0.4-0.2-0.9,0-1.3-0.2c-0.9-0.3-1.1-1.4-1.6-2.2
				c-0.1-0.1-0.1-0.3-0.3-0.3c-0.2-0.1-0.4,0-0.6,0c-0.9,0-1.5-0.9-2.4-1.3c-1-0.5-2.4,0.1-2.8,1.2c-0.2,0.4-0.2,0.9-0.3,1.4
				c-0.6,1.8-3.4,2.4-3.6,4.2c-0.1,1.3,1,2.6,0.5,3.7c-0.4,0.7-1.4,1.2-1.3,2c0,0.5,0.6,0.9,1.1,0.9c0.5,0,1-0.2,1.4-0.5
				c0.7-0.5,1.2-1.2,1.8-1.7c0.6-0.5,1.5-0.9,2.3-0.8c0.8,0.2,1.5,0.8,2.3,0.8c0.6-0.1,1.2-0.6,1.8-0.7c0.6-0.1,1.2,0.2,1.8,0.2
				c0.6,0.1,1.4-0.2,1.4-0.8c0-0.1,0-0.3,0-0.4c0.2-0.4,0.8-0.3,1-0.7c-0.3-0.5-0.7-0.4-0.9-1C39.1,93.5,39.3,92.9,39.4,92.4z"/>
		</g>
	</g>
</g>
<g>
	<g>
		<g>
			<g>
				<path class="st12" d="M281.5,226.5c-0.6,0.7-1.3,1.5-1.9,2.2c-2.4-1.9-4.7-4-6.8-6.4c1.3-0.6,2.1-2.4,3.8-1
					C277.1,221.8,281.3,226.7,281.5,226.5z"/>
			</g>
			<g>
				<path class="st13" d="M278.1,227.8c-0.3,0.4-0.5,0.9-0.4,1.5c0,0.3,0.1,0.7,0.1,1c0,0.3-0.2,0.6-0.3,0.8
					c-0.7,1.3-3.3,4.8,0.3,4.9c3.2,0.1,5.3-5.3,6.4-7.9c0.1-0.2,0.1-0.4,0.1-0.6c0-0.2-0.2-0.4-0.3-0.6c-0.7-1-1.9-2.6-2.9-1.5
					c-0.5,0.5-0.6,1.2-1.1,1.7C279.5,227.4,278.4,227.5,278.1,227.8z"/>
			</g>
		</g>
		<g>
			<path class="st14" d="M271.2,168.1c0.6,4.2-0.2,8.3-0.6,12.4c-0.5,4.6,0,8.5,0.9,13.1c1,5,2.1,10,3.5,14.9
				c1.5,5.1,3.6,9.2,6.1,13.8c0.2,0.4,0.4,0.8,0.4,1.3c-0.1,1.6-7,6-7.4,5.1c-3.8-7.8-9.9-15.5-13.2-23.6
				c-5.7-14-10.6-28.3-14.7-42.8c-0.6-2.1-1.1-4.5-0.1-6.2c0.8-1.4,2.3-1.9,3.7-2.4c3.8-1.2,10.7-3.8,14.5-1.3
				C268.5,155.1,270.5,163.4,271.2,168.1z"/>
		</g>
	</g>
	<g>
		<g>
			<g>
				<path class="st12" d="M250.5,235.2c-0.9,0-1.9,0-2.8-0.1c-0.3-3.2-0.4-6.4-0.2-9.7c1.3,0.6,3.1,0.2,3.2,2.4
					C250.8,228.6,250.3,235.2,250.5,235.2z"/>
			</g>
			<g>
				<path class="st13" d="M247.3,233.4c-0.5,0-0.9,0.2-1.3,0.7c-0.2,0.2-0.4,0.5-0.6,0.7c-0.2,0.2-0.5,0.2-0.8,0.3
					c-1.4,0.3-5.5,0.5-3.2,3.4c2.1,2.6,7.2,0.8,9.7-0.1c0.2-0.1,0.3-0.1,0.5-0.3c0.1-0.2,0.2-0.4,0.2-0.6c0.2-1.3,0.5-3.2-0.9-3.4
					c-0.6-0.1-1.2,0.3-1.9,0.2C248.5,234.2,247.7,233.4,247.3,233.4z"/>
			</g>
		</g>
		<g>
			<path class="st15" d="M264.6,173.5c-1.1,6.1-4.8,10.8-6.5,16.7c-3.3,11.5-4,24.6-5.6,36.5c-0.1,0.9-0.1,4.2-0.1,4.2
				s-4.4,0.9-7,0.3c-2.9-23.7-3.6-47.8-2.2-71.7c0.1-2.2,0.4-4.6,1.9-6c1.2-1,2.8-1.1,4.3-1c3.9,0.1,11.2-0.1,14,3.6
				C266.3,160.3,265.5,168.9,264.6,173.5z"/>
		</g>
	</g>
</g>
<g>
	<g>
		<g>
			<g>
				<path class="st16" d="M248.5,121.7c1.5-0.2,2.9-0.4,4.4-0.6c0-1.2-0.1-2.4-0.3-3.5c1.2-0.5,2.6-1.2,2.8-2.4
					c0.1-0.4,0-0.8-0.1-1.2c-0.3-1.7-0.7-3.3-1-5c-0.1-0.6-0.2-1.2-0.6-1.7c-0.6-0.9-1.7-1.2-2.7-1.3c-2.6-0.4-5.4,0.3-7.4,2
					c-0.5,0.5-1,1-1.2,1.7c-0.3,1,0,2.1,0.3,3.2c0.3,1,0.6,1.9,0.8,2.9c0.3,1.1,0.8,2.3,1.9,2.7c0.6,0.2,1.2,0.1,1.8,0.4
					C248.1,119.4,248,120.8,248.5,121.7z"/>
			</g>
			<g>
				<path class="st4" d="M233.1,105.5c-0.3-0.4-0.6-0.8-0.9-1.2c-0.7-0.8-1.5-1.5-2.1-2.4c-0.6-0.9-0.8-2.1-0.2-3
					c0.4-0.6,1.1-0.8,1.7-1.1c2.1-0.7,4.4-0.8,6.6-0.3c2.1,0.5,4,1.3,6,0.4c1.9-0.8,3.4-0.5,5.4,0.1c2.2,0.7,5.2,0.8,7.2,1.9
					c0.8,0.4,1.5,1.1,2.1,1.9c1.9,2.7,2,6.6,0.3,9.4c-0.4,0.6-0.8,1.2-1.3,1.8c-1,1.2-2.2,2.6-3.6,3.1c-0.1-1.3,1-5.4,0-6.4
					c-1.6-1.6-5.1-0.9-7.1-0.5c-2.1,0.5-3.9,2.1-6,2.4c-1.5,0.3-3.5-0.4-4.8-1.2C234.9,109.8,234.1,107,233.1,105.5z"/>
			</g>
		</g>
	</g>
	<g>
		<path class="st17" d="M257.9,119.9c3,1.6,5.3,4.4,6.8,7.4c6.1,12,9,25.3,11.9,38.4c0.9,4.3,2,8.8,5.3,11.7c-2.9,0.5-6,0.9-8.8,0
			c-1.8-0.6-3.5-1.7-5.2-2.5c-4.4-2.1-9.4-2.5-14.2-1.8c-4.8,0.6-9.5,2.1-14.1,3.6c-0.5-3.6-0.6-6.7-0.4-10.3
			c0.6-10.1,4.6-19.8,4.6-29.9c0-3.6-0.5-7.2,0.3-10.7c1-4.4,4.7-7.3,9.2-7.1C255,118.7,256.5,119.2,257.9,119.9z"/>
	</g>
</g>
<g>
	<rect x="160.6" y="103.9" class="st9" width="59.7" height="77.9"/>
</g>
<g>
	<g>
		<g>
			<path class="st0" d="M40.5,158.2c0.2,0.1,0.5,0.1,0.8,0.2c0.9,0.2,1.8,0.2,2.7,0.3c0.7,0,1.3,0,2,0c3,0,5.5-0.3,5.7-0.7l0-0.1
				c0,0,0,0,0,0c0,0,0-0.1,0-0.1V145c0-0.1,0-0.2,0-0.3c0,0-0.1-0.1-0.1-0.1c-0.1,0-0.1-0.1-0.2-0.1c-0.6-0.2-1.4-0.3-2-0.3
				c-1.1-0.1-2.2-0.1-3.3-0.1c-1.1,0-2.2,0-3.3,0.1c-0.7,0.1-1.4,0.1-2,0.3c-0.2,0.1-0.4,0.2-0.4,0.4c0,0.1,0,0.1,0,0.2v12.6
				c0,0.2,0,0.3,0.1,0.4C40.4,158.1,40.5,158.2,40.5,158.2z"/>
			<polygon class="st10" points="44.1,237.6 43.4,240.9 46.9,241.3 48.7,238.1 48.8,235.8 44,234.8 			"/>
		</g>
		<g>
			<ellipse class="st0" cx="45.9" cy="144.8" rx="5.6" ry="0.7"/>
		</g>
		<g>
			<g>
				<path class="st7" d="M45.8,144.4c-2.6,0-4.8,0.3-5,0.7c0.6,0.2,2.6,0.4,5.1,0.4c2.1,0,4-0.1,4.8-0.3c0,0,0.2,0,0.2,0
					C50.9,144.6,48.5,144.4,45.8,144.4z"/>
			</g>
		</g>
		<g>
			<path class="st0" d="M42,148.1c-1.2-1.1-2.8-1.9-4.3-1.3c-1.2,0.5-2.1,1.8-2.3,3.1c-0.4,2.9,3,5.2,5.4,4.1
				c0.7-0.3,0.2-1.4-0.5-1.1c-1.7,0.8-4-1.3-3.4-3.1c0.7-2.2,2.8-2.2,4.3-0.8C41.7,149.6,42.6,148.7,42,148.1z"/>
		</g>
	</g>
	<g>
		<g>
			<path class="st7" d="M45.3,135.4c0.5,0,0.5-0.8,0-0.8c-1.2-0.1-2.3,0.7-2.5,1.9c-0.1,0.6,0.1,1.2,0.5,1.7c0.6,0.9,2.3,2,0.7,3.1
				c-0.4,0.3,0,1,0.4,0.7c0.7-0.5,1.2-1.3,1-2.3c-0.1-0.5-0.4-0.8-0.7-1.2c-0.3-0.3-0.8-0.6-0.9-1.1
				C43.4,136.3,44.1,135.3,45.3,135.4z"/>
		</g>
		<g>
			<path class="st7" d="M49.1,136.1c0.5,0,0.5-0.8,0-0.8c-1.2-0.1-2.3,0.7-2.5,1.9c-0.1,0.6,0.1,1.2,0.5,1.7c0.6,0.9,2.3,2,0.7,3.1
				c-0.4,0.3,0,1,0.4,0.7c0.7-0.5,1.2-1.3,1-2.3c-0.1-0.5-0.4-0.8-0.7-1.2c-0.3-0.3-0.8-0.6-0.9-1.1
				C47.2,137.1,47.9,136.1,49.1,136.1z"/>
		</g>
	</g>
</g>
<g>
	<g>
		<path class="st12" d="M39.4,150c0-0.1,0-0.2-0.1-0.2c-0.3-0.7-1-0.7-1.4-1.3c-0.2-0.2-0.1-1.2-0.6-1c-0.2,0.1-0.8,0.2-1.4,0.4
			c-0.5,0-1,0-1.6-0.1c-1.3-0.2-3.7-2.1-4.8-0.6c-0.2,0.3-0.4,0.6-0.5,1c-0.1,0.3-0.1,0.6-0.1,0.9c0,0.2,0,0.6,0.1,0.7
			c0.2,0.1,0.7,0.2,1,0.2c0.6,0.1,1.3,0.3,1.9,0.4c0.6,0.1,1.4,0.3,1.6,1c0,0.1,0,0.3,0.1,0.4c0.1,0.1,0.2,0.3,0.3,0.4
			c0.4,0.4,0.9,0.7,1.5,0.9c0.9,0.4,2.4-0.5,3.3-0.9c0.2-0.1,0.4-0.2,0.6-0.4c0.2-0.3,0.3-0.7,0.3-1.1
			C39.4,150.5,39.4,150.3,39.4,150z"/>
	</g>
	<g>
		<path class="st9" d="M16.3,138c-0.4,1.1-0.6,2.2-0.6,3.5c0.1,1.3,0.8,2.5,1.7,3.4c0.9,0.9,2.1,1.5,3.3,2.1
			c3.5,1.8,7.1,3.2,10.8,4.4c0.6-1.3,1.2-2.5,1.9-3.8c0.1-0.3,0.3-0.7,0.2-1c-0.1-0.3-0.4-0.5-0.7-0.6c-1.3-0.7-2.7-1.5-4-2.2
			c-1.3-0.7-2.6-1.5-3.2-2.8c-1.2-2.5,1.6-3.6,2.9-5c1.9-1.9,3.8-3.8,5.6-5.8c1.7-1.8,3.5-3.6,4.2-5.9c1.5-4.6,0-7.7-4.3-5.9
			c-2.7,1.2-4.8,3.3-7.6,5.9C22.6,128,18.2,133,16.3,138z"/>
	</g>
</g>
<g>
	<g>
		<g>
			<g>
				<path class="st18" d="M112,109.4c-9.2,0-17.5,4.1-23.1,10.5l23.1,20l23.1-20C129.5,113.5,121.2,109.4,112,109.4z"/>
			</g>
			<g>
				<path class="st19" d="M88.9,120c-10.9,12.9-9.2,32.2,3.7,43c1.1,1,2.3,1.8,3.5,2.6l16.2-25.9L88.9,120z"/>
			</g>
			<g>
				<path class="st9" d="M112.3,170.3c-5.7,0-11.5-1.6-16.5-4.9l16.5-25.7L112.3,170.3z"/>
			</g>
		</g>
	</g>
	<g>
		<g>
			<path class="st0" d="M150.2,132.9c-0.8-5.9-3.4-11.3-7.1-15.7l-23.1,20L150.2,132.9z"/>
		</g>
	</g>
	<g>
		<g>
			<g>
				<path class="st14" d="M145.7,137.6l-30.2,4.3v30.5c16.9,0,30.5-13.7,30.5-30.5C146,140.5,145.9,139,145.7,137.6z"/>
			</g>
		</g>
	</g>
</g>
<g>
	<g>
		<path class="st12" d="M155,79.2c0.2-0.1,0.4-0.2,0.6-0.4c0,0,0.1-0.1,0.1-0.2c0-0.1,0-0.1,0-0.2c-0.1-0.3-0.8-2.2-0.6-2.3
			c1.3-0.7,2.3-1.9,2.9-3.1c1.2-2.3,1.2-4.8,1-7.3c-0.3-3.5-1.5-7.3-4.8-8.6c-2.5-1-5.6,0.1-7.6,1.9c-2.6,2.4-2.2,6.3-1.6,9.3
			c0.4,2.2,1.3,4.3,2.8,5.9c0.8,0.8,1.7,1.5,2.7,1.9c0.5,0.2,1,0.2,1.1,0.7c0.2,0.6,0.1,1.5,0.2,2.2c0,0.1,0,0.2,0.1,0.3
			c0.1,0,0.1,0.1,0.2,0.1c0.5,0,1.1,0,1.6,0C154.2,79.4,154.6,79.4,155,79.2z"/>
	</g>
	<g>
		<path class="st4" d="M155.7,61.9c1.3,0.7,2.5,2,2.3,3.4c0.7-0.3,1.5,0.3,1.6,1c0.1,0.7-0.3,1.4-0.8,2c0.7,0.1,1.5-0.4,1.8-1.1
			c0.3-0.7,0.4-1.4,0.4-2.2c0-2.2-0.1-4.5-0.9-6.5c-0.9-2-2.6-3.8-4.8-4.2c-0.7-0.1-1.4-0.1-2,0c-0.6,0.1-1.1,0.2-1.6,0.4
			C147.6,57.1,154,61,155.7,61.9z"/>
	</g>
	<g>
		<path class="st4" d="M146.6,66.3c-0.6,1.7,0.9,3.6,0.5,5.4c-0.3,1.1-1.2,2-1.2,3.2c0,1.5,1.6,2.6,1.7,4.1
			c-0.9-1.2-2.7-1.5-3.6-2.7c-0.3-0.5-0.5-1.2-0.7-1.7c-1-2.4-3.6-3.5-5.8-4.8c-0.3-0.2-0.5-0.3-0.7-0.6c-0.3-0.6,0-1.3,0.3-1.9
			c0.9-1.8,1.2-3.9,0.9-5.8c-0.3-1.9-1.1-3.7-0.7-5.6c0.3-1.7,1.7-3.1,3.3-3.5c1.5-0.4,3.1,0,4.5-0.3c1-0.2,1.9-0.8,2.8-1.2
			c2.1-1,4.9-1.2,6.6,0.5c1.5,1.5,1.5,3.9,0.5,5.8c-0.6,1.1-1.4,2.1-2,3.2c-0.5,0.9-0.8,1.8-1.5,2.5C150,64,147.4,64.3,146.6,66.3z"
			/>
	</g>
</g>
<g>
	<g>
		<path class="st12" d="M159.5,87.5c0.1,0,0.3,0.1,0.4,0.1c0.3,0.2,0.2,0.7,0.3,1.1c0.1,0.2,0.2,0.5,0.3,0.7
			c0.2,0.4,0.5,0.7,0.7,1.1c0,0.1,0.1,0.1,0.1,0.2c0.1,0,0.1,0,0.2,0c0.7,0,1.4-0.1,2-0.6c0.5-0.5,0.7-1.2,0.8-1.8
			c0-0.4,0-0.9-0.1-1.3c0-0.1-0.1-0.3-0.1-0.4c-0.1-0.1-0.2-0.2-0.3-0.2c-0.6-0.4-1.3-0.6-2-0.7c-0.4,0-0.8,0-1.2-0.2
			c-0.3-0.1-0.5-0.3-0.7-0.5c-0.4-0.3-0.9-0.6-1.4-0.9c-0.1-0.1-0.5,2.2-0.5,2.4C157.9,87.6,158.7,87.4,159.5,87.5z"/>
	</g>
	<g>
		<path class="st0" d="M136.4,74.4c-0.6-0.1-1.1-0.1-1.6-0.1c-0.6,0-1.2,0-1.8,0.1c-0.5,0.2-1,0.5-1.4,0.9c-1.9,1.6-3.9,4.7-1.7,6.8
			c0.7,0.6,1.5,0.9,2.4,1.2c2.4,0.7,4.8,1.1,7.3,1.6c6.5,1.2,13.1,2.4,19.6,3.6c0.4-1.4,0.8-2.7,1.3-4.1c0.3-1.1-8.9-5.4-9.9-5.9
			C146.2,76.6,141.1,74.9,136.4,74.4z"/>
	</g>
</g>
<g>
	<g>
		<g>
			<g>
				
					<rect x="206.5" y="121.4" transform="matrix(-1 -1.224647e-16 1.224647e-16 -1 419.2232 259.2449)" class="st7" width="6.2" height="16.4"/>
			</g>
			<g>
				
					<rect x="187.3" y="125.9" transform="matrix(-1 -1.224647e-16 1.224647e-16 -1 380.7359 263.6928)" class="st7" width="6.2" height="12"/>
			</g>
			<g>
				
					<rect x="168" y="121.2" transform="matrix(-1 -1.224647e-16 1.224647e-16 -1 342.2486 258.9951)" class="st7" width="6.2" height="16.6"/>
			</g>
			<g>
				
					<rect x="177.6" y="114.7" transform="matrix(-1 -1.224647e-16 1.224647e-16 -1 361.4923 252.5205)" class="st7" width="6.2" height="23.1"/>
			</g>
			<g>
				
					<rect x="196.9" y="108.5" transform="matrix(-1 -1.224647e-16 1.224647e-16 -1 399.9796 246.2925)" class="st7" width="6.2" height="29.4"/>
			</g>
		</g>
	</g>
	<g class="st20">
		<rect x="166.9" y="144" class="st7" width="47.2" height="2"/>
	</g>
	<g class="st20">
		<rect x="166.9" y="150.9" class="st7" width="47.2" height="2"/>
	</g>
	<g class="st20">
		<rect x="166.9" y="157.8" class="st7" width="47.2" height="2"/>
	</g>
	<g class="st20">
		<rect x="166.9" y="164.8" class="st7" width="47.2" height="2"/>
	</g>
	<g class="st20">
		<rect x="166.9" y="171.7" class="st7" width="47.2" height="2"/>
	</g>
</g>
<g>
	<g>
		<path class="st16" d="M211.2,152.9c0.7-0.8,1.4-1.6,2.1-2.4c0.2-0.2,0.7-1,1.1-0.7c0.2,0.1,0.9,0.6,1.5,1.1
			c0.6,0.2,1.3,0.4,1.9,0.5c1.7,0.3,5.5-1,6.2,1.3c0.1,0.4,0.2,0.9,0.2,1.3c0,0.4-0.2,0.7-0.3,1.1c-0.1,0.3-0.2,0.7-0.5,0.8
			c-0.3,0.1-1-0.1-1.3-0.1c-0.9-0.1-1.7-0.2-2.6-0.3c-0.8-0.1-1.8-0.1-2.4,0.5c-0.1,0.1-0.2,0.3-0.3,0.4c-0.2,0.1-0.4,0.2-0.5,0.3
			c-0.7,0.2-1.5,0.4-2.2,0.5c-0.7,0.1-1-0.4-1.5-0.8c-0.6-0.5-1.3-0.5-1.9-1c-0.3-0.3-0.6-0.7-0.5-1.1c0.1-0.3,0.3-0.6,0.5-0.9
			C210.9,153.2,211.1,153.1,211.2,152.9z"/>
	</g>
	<g>
		<path class="st21" d="M242.1,155.8c-1.6,1-3.4,1.6-5.5,1.9c-5.3,0.7-10.7,0.7-16-0.3c-0.3-2.5-0.2-5,0.5-7.5
			c4.4-0.3,8.7-0.9,13-1.8c2.1-0.5,3.9-1.2,4.8-3.3c2.1-4.6,3.9-9.3,5.3-14.2c0.3-1.1,0.6-2.2,1.3-3.1c1.2-1.7,3.4-2.4,5.4-2.2
			c2,0.3,3.8,1.5,5.2,3.1c0.9,1.1,1.7,2.5,1.8,4c0.1,1.5-0.6,3-1.3,4.3c-3.1,6-7,11.6-11.6,16.6
			C244.1,154.4,243.1,155.2,242.1,155.8z"/>
	</g>
</g>
</svg>
